<?xml version="1.0" encoding="UTF-8" standalone="no"?>
<svg width="54px" height="54px" viewBox="0 0 54 54" version="1.1" xmlns="http://www.w3.org/2000/svg" xmlns:xlink="http://www.w3.org/1999/xlink">
    <!-- Generator: Sketch 48.2 (47327) - http://www.bohemiancoding.com/sketch -->
    <title></title>
    <desc>Created with Sketch.</desc>
    <defs></defs>
    <g id="Main" stroke="none" stroke-width="1" fill="none" fill-rule="evenodd" transform="translate(-147.000000, -920.000000)">
        <g id="Group-4" transform="translate(97.000000, 920.000000)" fill="#8D7045">
            <path d="M99.5175781,32.0625 C100.888679,33.2226621 101.978512,34.628898 102.787109,36.28125 C103.595707,37.933602 104,39.7089749 104,41.6074219 C104,43.3300867 103.674808,44.9384691 103.024414,46.4326172 C102.37402,47.9267653 101.486334,49.2363225 100.361328,50.3613281 C99.2363225,51.4863337 97.9267653,52.3740202 96.4326172,53.0244141 C94.9384691,53.6748079 93.3300867,54 91.6074219,54 C89.7089749,54 87.933602,53.5957072 86.28125,52.7871094 C84.628898,51.9785116 83.24024,50.8886787 82.1152344,49.5175781 L54.4824219,49.5175781 C53.251947,49.5175781 52.19727,49.0693404 51.3183594,48.1728516 C50.4394487,47.2763627 50,46.2128968 50,44.9824219 L50,9.01757812 C50,7.7519468 50.4394487,6.67969189 51.3183594,5.80078125 C52.19727,4.92187061 53.251947,4.48242188 54.4824219,4.48242188 L63.5,4.48242188 L63.5,1.10742188 C63.5,0.826170469 63.6142567,0.571290205 63.8427734,0.342773438 C64.0712902,0.11425667 64.3261705,0 64.6074219,0 C64.9238297,0 65.1962879,0.11425667 65.4248047,0.342773438 C65.6533215,0.571290205 65.7675781,0.826170469 65.7675781,1.10742188 L65.7675781,4.48242188 L86.0175781,4.48242188 L86.0175781,1.10742188 C86.0175781,0.826170469 86.1230458,0.571290205 86.3339844,0.342773438 C86.5449229,0.11425667 86.8085922,0 87.125,0 C87.4414078,0 87.7050771,0.105467695 87.9160156,0.31640625 C88.1269542,0.527344805 88.2324219,0.791014043 88.2324219,1.10742188 L88.2324219,4.48242188 L94.9824219,4.48242188 C96.2480532,4.48242188 97.3203081,4.92187061 98.1992188,5.80078125 C99.0781294,6.67969189 99.5175781,7.7519468 99.5175781,9.01757812 L99.5175781,32.0625 Z M52.2675781,9.01757812 L52.2675781,15.7675781 L97.25,15.7675781 L97.25,9.01757812 C97.25,8.38476246 97.0302756,7.84863501 96.5908203,7.40917969 C96.151365,6.96972437 95.6152375,6.75 94.9824219,6.75 L88.2324219,6.75 L88.2324219,11.2324219 C88.2324219,11.8652375 88.0126975,12.401365 87.5732422,12.8408203 C87.1337869,13.2802756 86.6152374,13.5 86.0175781,13.5 C85.3847625,13.5 84.848635,13.2802756 84.4091797,12.8408203 C83.9697244,12.401365 83.75,11.8652375 83.75,11.2324219 C83.75,10.6347626 83.9697244,10.1162131 84.4091797,9.67675781 C84.848635,9.23730249 85.3847625,9.01757812 86.0175781,9.01757812 L86.0175781,6.75 L65.7675781,6.75 L65.7675781,11.2324219 C65.7675781,11.8652375 65.5478538,12.401365 65.1083984,12.8408203 C64.6689431,13.2802756 64.1328157,13.5 63.5,13.5 C62.8671843,13.5 62.3310569,13.2802756 61.8916016,12.8408203 C61.4521462,12.401365 61.2324219,11.8652375 61.2324219,11.2324219 C61.2324219,10.6347626 61.4521462,10.1162131 61.8916016,9.67675781 C62.3310569,9.23730249 62.8671843,9.01757812 63.5,9.01757812 L63.5,6.75 L54.4824219,6.75 C53.8847626,6.75 53.3662131,6.96972437 52.9267578,7.40917969 C52.4873025,7.84863501 52.2675781,8.38476246 52.2675781,9.01757812 Z M54.4824219,47.25 L80.6386719,47.25 C80.1816383,46.4062458 79.8388683,45.5097704 79.6103516,44.5605469 C79.3818348,43.6113234 79.2675781,42.6269582 79.2675781,41.6074219 C79.2675781,39.9199134 79.5927702,38.3203201 80.2431641,36.8085938 C80.8935579,35.2968674 81.7724554,33.9873102 82.8798828,32.8798828 C83.9873102,31.7724554 85.2968674,30.8935579 86.8085938,30.2431641 C88.3203201,29.5927702 89.9199134,29.2675781 91.6074219,29.2675781 C92.6269582,29.2675781 93.6113234,29.3818348 94.5605469,29.6103516 C95.5097704,29.8388683 96.4062458,30.1816383 97.25,30.6386719 L97.25,17.9824219 L52.2675781,17.9824219 L52.2675781,44.9824219 C52.2675781,45.6152375 52.4873025,46.151365 52.9267578,46.5908203 C53.3662131,47.0302756 53.8847626,47.25 54.4824219,47.25 Z M91.6074219,51.7324219 C94.4199359,51.7324219 96.810537,50.7480567 98.7792969,48.7792969 C100.748057,46.810537 101.732422,44.4199359 101.732422,41.6074219 C101.732422,38.8300642 100.748057,36.4482521 98.7792969,34.4619141 C96.810537,32.475576 94.4199359,31.4824219 91.6074219,31.4824219 C88.8300642,31.4824219 86.4482521,32.475576 84.4619141,34.4619141 C82.475576,36.4482521 81.4824219,38.8300642 81.4824219,41.6074219 C81.4824219,44.4199359 82.475576,46.810537 84.4619141,48.7792969 C86.4482521,50.7480567 88.8300642,51.7324219 91.6074219,51.7324219 Z M96.4589844,37.4414062 C96.6699229,37.2304677 96.9335922,37.125 97.25,37.125 C97.5664078,37.125 97.8300771,37.2304677 98.0410156,37.4414062 C98.2519542,37.6523448 98.3574219,37.916014 98.3574219,38.2324219 C98.3574219,38.5488297 98.2519542,38.8124989 98.0410156,39.0234375 L90.1835938,46.9335938 C90.0781245,47.039063 89.9550788,47.1181638 89.8144531,47.1708984 C89.6738274,47.2236331 89.5332038,47.25 89.3925781,47.25 C89.2519524,47.25 89.1113288,47.2236331 88.9707031,47.1708984 C88.8300774,47.1181638 88.7070318,47.039063 88.6015625,46.9335938 L85.2265625,43.5585938 C84.9804675,43.3124988 84.8574219,43.0400406 84.8574219,42.7412109 C84.8574219,42.4423813 84.9804675,42.1699231 85.2265625,41.9238281 C85.4375011,41.7128896 85.7011703,41.6074219 86.0175781,41.6074219 C86.333986,41.6074219 86.5976552,41.7128896 86.8085938,41.9238281 L89.3925781,44.5078125 L96.4589844,37.4414062 Z" id=""></path>
        </g>
    </g>
</svg>