<?xml version="1.0" encoding="UTF-8" standalone="no"?>
<svg width="50px" height="50px" viewBox="0 0 50 50" version="1.1" xmlns="http://www.w3.org/2000/svg" xmlns:xlink="http://www.w3.org/1999/xlink">
    <!-- Generator: Sketch 48.2 (47327) - http://www.bohemiancoding.com/sketch -->
    <title></title>
    <desc>Created with Sketch.</desc>
    <defs></defs>
    <g id="Main" stroke="none" stroke-width="1" fill="none" fill-rule="evenodd" transform="translate(-717.000000, -922.000000)">
        <g id="Group-6" transform="translate(614.000000, 922.000000)" fill="#8D7045">
            <path d="M151.974609,38.7695312 C152.300132,38.7695312 152.552408,38.8671865 152.731445,39.0625 C152.910483,39.2578135 153,39.5019517 153,39.7949219 L153,48.9746094 C153,49.3001318 152.910483,49.552408 152.731445,49.7314453 C152.552408,49.9104827 152.300132,50 151.974609,50 L104.025391,50 C103.699868,50 103.447592,49.9104827 103.268555,49.7314453 C103.089517,49.552408 103,49.3001318 103,48.9746094 L103,14.3066406 C103,14.1438794 103.032552,13.9567068 103.097656,13.7451172 C103.162761,13.5335276 103.260416,13.4114585 103.390625,13.3789062 C103.553386,13.3138018 103.708007,13.2649741 103.854492,13.2324219 C104.000977,13.1998696 104.155598,13.2161455 104.318359,13.28125 L136.984375,23.4863281 C137.179688,23.5839849 137.350585,23.7223298 137.49707,23.9013672 C137.643555,24.0804045 137.716797,24.283853 137.716797,24.5117188 L137.716797,38.7695312 L143.820312,38.7695312 L143.820312,28.4667969 C141.769521,28.2714834 140.239588,27.3274824 139.230469,25.6347656 C138.221349,23.9420488 137.716797,21.5169429 137.716797,18.359375 C137.716797,16.7643149 137.86328,14.9088647 138.15625,12.7929688 C138.44922,10.6770728 138.896807,8.67513965 139.499023,6.78710938 C140.10124,4.8990791 140.84993,3.29590503 141.745117,1.97753906 C142.640304,0.659173096 143.673822,0 144.845703,0 C146.017584,0 147.051102,0.659173096 147.946289,1.97753906 C148.841476,3.29590503 149.582028,4.8990791 150.167969,6.78710938 C150.753909,8.67513965 151.201496,10.6770728 151.510742,12.7929688 C151.819989,14.9088647 151.974609,16.7643149 151.974609,18.359375 C151.974609,21.5169429 151.461919,23.9420488 150.436523,25.6347656 C149.411128,27.3274824 147.889333,28.2714834 145.871094,28.4667969 L145.871094,38.7695312 L151.974609,38.7695312 Z M139.71875,18.359375 C139.71875,21.9726743 140.280268,24.2350215 141.40332,25.1464844 C142.526373,26.0579473 143.673822,26.5136719 144.845703,26.5136719 C146.017584,26.5136719 147.156896,26.0579473 148.263672,25.1464844 C149.370448,24.2350215 149.923828,21.9726743 149.923828,18.359375 C149.923828,16.4062402 149.761069,14.4531348 149.435547,12.5 C149.110024,10.5468652 148.69499,8.79720825 148.19043,7.25097656 C147.68587,5.70474487 147.13249,4.4515022 146.530273,3.49121094 C145.928057,2.53091968 145.366539,2.05078125 144.845703,2.05078125 C144.292315,2.05078125 143.722659,2.53091968 143.136719,3.49121094 C142.550778,4.4515022 142.005536,5.70474487 141.500977,7.25097656 C140.996417,8.79720825 140.573244,10.5468652 140.231445,12.5 C139.889647,14.4531348 139.71875,16.4062402 139.71875,18.359375 Z M135.666016,38.7695312 L135.666016,25.2929688 L129.513672,23.3886719 L129.513672,38.7695312 L135.666016,38.7695312 Z M113.205078,38.7695312 L119.308594,38.7695312 L119.308594,20.2148438 L113.205078,18.2617188 L113.205078,38.7695312 Z M121.359375,20.8007812 L121.359375,38.7695312 L127.511719,38.7695312 L127.511719,22.7539062 L121.359375,20.8007812 Z M105.050781,15.7226562 L105.050781,38.7695312 L111.154297,38.7695312 L111.154297,17.6757812 L105.050781,15.7226562 Z M105.050781,40.8203125 L105.050781,47.9492188 L107.101562,47.9492188 L107.101562,42.8710938 C107.101562,42.5455713 107.19108,42.2932952 107.370117,42.1142578 C107.549155,41.9352205 107.785155,41.8457031 108.078125,41.8457031 L113.205078,41.8457031 C113.498048,41.8457031 113.742187,41.9352205 113.9375,42.1142578 C114.132813,42.2932952 114.230469,42.5455713 114.230469,42.8710938 L114.230469,47.9492188 L130.539062,47.9492188 L130.539062,40.8203125 L105.050781,40.8203125 Z M109.103516,47.9492188 L112.179688,47.9492188 L112.179688,43.8964844 L109.103516,43.8964844 L109.103516,47.9492188 Z M132.589844,47.9492188 L143.820312,47.9492188 L143.820312,40.8203125 L132.589844,40.8203125 L132.589844,47.9492188 Z M150.949219,47.9492188 L150.949219,40.8203125 L145.871094,40.8203125 L145.871094,47.9492188 L150.949219,47.9492188 Z" id=""></path>
        </g>
    </g>
</svg>