<?xml version="1.0" encoding="UTF-8" standalone="no"?>
<svg width="4px" height="9px" viewBox="0 0 4 9" version="1.1" xmlns="http://www.w3.org/2000/svg" xmlns:xlink="http://www.w3.org/1999/xlink">
    <!-- Generator: Sketch 48.2 (47327) - http://www.bohemiancoding.com/sketch -->
    <title>Shape</title>
    <desc>Created with Sketch.</desc>
    <defs></defs>
    <g id="0x.-footer" stroke="none" stroke-width="1" fill="none" fill-rule="evenodd" transform="translate(-1037.000000, -36.000000)">
        <path d="M1039.6,44.8 L1039.6,40.5 L1040.8,40.5 C1040.9,40 1040.9,39.5 1041,39 L1039.6,39 C1039.6,38.7 1039.6,38.4 1039.6,38.2 C1039.6,37.8 1039.7,37.7 1040.1,37.7 C1040.4,37.7 1040.7,37.7 1041,37.7 L1041,36.2 C1040.5,36.2 1039.9,36.2 1039.4,36.2 C1038.6,36.3 1038.1,36.7 1037.9,37.5 C1037.9,37.7 1037.9,37.9 1037.8,38.2 C1037.8,38.5 1037.8,38.7 1037.8,39 L1037,39 L1037,40.5 L1037.8,40.5 L1037.8,44.8 L1039.6,44.8 Z" id="Shape" fill="#8E7146" fill-rule="nonzero"></path>
    </g>
</svg>