<?xml version="1.0" encoding="UTF-8" standalone="no"?>
<svg width="12px" height="24px" viewBox="0 0 12 24" version="1.1" xmlns="http://www.w3.org/2000/svg" xmlns:xlink="http://www.w3.org/1999/xlink">
    <!-- Generator: Sketch 48.2 (47327) - http://www.bohemiancoding.com/sketch -->
    <title>Shape</title>
    <desc>Created with Sketch.</desc>
    <defs></defs>
    <g id="menu" stroke="none" stroke-width="1" fill="none" fill-rule="evenodd" transform="translate(-69.000000, -673.000000)">
        <g id="Group-5" transform="translate(69.000000, 673.000000)" fill="#FFFFFF" fill-rule="nonzero">
            <g id="Group-6" transform="translate(0.632812, 0.000000)">
                <path d="M6.97971425,23.2340221 L6.97971425,11.881034 L10.14799,11.881034 C10.412013,10.5609191 10.412013,9.24080424 10.6760359,7.92068935 L6.97971425,7.92068935 C6.97971425,7.12862041 6.97971425,6.33655148 6.97971425,5.80850552 C6.97971425,4.75241361 7.24373722,4.48839063 8.29982914,4.48839063 C9.09189807,4.48839063 9.88396701,4.48839063 10.6760359,4.48839063 L10.6760359,0.528045956 C9.35592105,0.528045956 7.77178318,0.528045956 6.45166829,0.528045956 C4.33948446,0.792068935 3.01936957,1.84816085 2.49132362,3.96034467 C2.49132362,4.48839063 2.49132362,5.01643659 2.22730064,5.80850552 C2.22730064,6.60057445 2.22730064,7.12862041 2.22730064,7.92068935 L0.115116812,7.92068935 L0.115116812,11.881034 L2.22730064,11.881034 L2.22730064,23.2340221 L6.97971425,23.2340221 Z" id="Shape"></path>
            </g>
        </g>
    </g>
</svg>