<?xml version="1.0" encoding="UTF-8" standalone="no"?>
<svg width="24px" height="24px" viewBox="0 0 24 24" version="1.1" xmlns="http://www.w3.org/2000/svg" xmlns:xlink="http://www.w3.org/1999/xlink">
    <!-- Generator: Sketch 48.2 (47327) - http://www.bohemiancoding.com/sketch -->
    <title>Combined Shape</title>
    <desc>Created with Sketch.</desc>
    <defs></defs>
    <g id="menu" stroke="none" stroke-width="1" fill="none" fill-rule="evenodd" transform="translate(-173.000000, -673.000000)">
        <g id="Group-6" transform="translate(69.632812, 673.000000)" fill="#FFFFFF" fill-rule="nonzero">
            <path d="M103.802352,6.96407995 C103.802352,3.32095943 106.755235,0.36788662 110.398508,0.36788662 L120.185689,0.36788662 C123.828497,0.36788662 126.781845,3.32143056 126.781845,6.96407995 L126.781845,16.6296021 C126.781845,20.2727227 123.828962,23.2257955 120.185689,23.2257955 L110.398508,23.2257955 C106.7557,23.2257955 103.802352,20.2722515 103.802352,16.6296021 L103.802352,6.96407995 Z M105.930083,6.96407995 L105.930083,16.6296021 C105.930083,19.0971697 107.930845,21.0980646 110.398508,21.0980646 L120.185689,21.0980646 C122.653818,21.0980646 124.654114,19.0976399 124.654114,16.6296021 L124.654114,6.96407995 C124.654114,4.49651236 122.653352,2.4956175 120.185689,2.4956175 L110.398508,2.4956175 C107.930379,2.4956175 105.930083,4.49604221 105.930083,6.96407995 Z M115.322495,17.9368644 C111.981815,17.9368644 109.27366,15.2287088 109.27366,11.8880295 C109.27366,8.54735023 111.981815,5.83919459 115.322495,5.83919459 C118.663174,5.83919459 121.37133,8.54735023 121.37133,11.8880295 C121.37133,15.2287088 118.663174,17.9368644 115.322495,17.9368644 Z M115.322495,15.8091336 C117.488061,15.8091336 119.243599,14.0535955 119.243599,11.8880295 C119.243599,9.72246355 117.488061,7.96692547 115.322495,7.96692547 C113.156929,7.96692547 111.401391,9.72246355 111.401391,11.8880295 C111.401391,14.0535955 113.156929,15.8091336 115.322495,15.8091336 Z M121.432122,7.14622927 C120.62633,7.14622927 119.973106,6.4930058 119.973106,5.68721381 C119.973106,4.88142183 120.62633,4.22819835 121.432122,4.22819835 C122.237914,4.22819835 122.891137,4.88142183 122.891137,5.68721381 C122.891137,6.4930058 122.237914,7.14622927 121.432122,7.14622927 Z" id="Combined-Shape"></path>
        </g>
    </g>
</svg>