<?xml version="1.0" encoding="UTF-8" standalone="no"?>
<svg width="7px" height="9px" viewBox="0 0 7 9" version="1.1" xmlns="http://www.w3.org/2000/svg" xmlns:xlink="http://www.w3.org/1999/xlink">
    <!-- Generator: Sketch 48.2 (47327) - http://www.bohemiancoding.com/sketch -->
    <title>Shape</title>
    <desc>Created with Sketch.</desc>
    <defs></defs>
    <g id="0x.-footer" stroke="none" stroke-width="1" fill="none" fill-rule="evenodd" transform="translate(-1060.000000, -36.000000)">
        <path d="M1066.9,39.4 C1066.9,39.5 1066.9,39.7 1066.8,39.8 C1066.7,40.5 1066.4,41.1 1066,41.6 C1065.5,42.1 1064.9,42.4 1064.2,42.4 C1063.9,42.4 1063.6,42.3 1063.3,42.1 C1063.2,42 1063.1,41.9 1063,41.9 C1063,41.9 1063,41.9 1062.9,41.9 C1062.9,42 1062.8,42.2 1062.8,42.3 C1062.7,42.8 1062.6,43.3 1062.4,43.7 C1062.2,44.1 1062,44.5 1061.6,44.7 C1061.6,44.7 1061.6,44.7 1061.6,44.7 C1061.6,44.7 1061.6,44.7 1061.6,44.7 C1061.6,44.6 1061.6,44.5 1061.6,44.5 C1061.5,43.9 1061.6,43.3 1061.7,42.7 C1061.8,42 1062,41.4 1062.2,40.7 C1062.2,40.5 1062.3,40.4 1062.3,40.2 C1062.3,40.2 1062.3,40.1 1062.3,40.1 C1062.1,39.7 1062.1,39.3 1062.2,38.8 C1062.3,38.5 1062.4,38.3 1062.6,38.1 C1062.9,37.9 1063.4,37.9 1063.6,38.2 C1063.7,38.3 1063.7,38.5 1063.7,38.6 C1063.7,38.8 1063.6,39 1063.6,39.3 C1063.5,39.7 1063.4,40 1063.3,40.4 C1063.3,40.6 1063.2,40.7 1063.3,40.9 C1063.3,41.2 1063.5,41.4 1063.8,41.4 C1064.3,41.5 1064.8,41.4 1065.1,41 C1065.4,40.6 1065.6,40.2 1065.7,39.8 C1065.8,39.3 1065.8,38.8 1065.7,38.4 C1065.5,37.7 1065.1,37.3 1064.4,37.1 C1063.7,36.9 1063.1,37 1062.5,37.3 C1062.1,37.5 1061.8,37.8 1061.5,38.2 C1061.2,38.6 1061.1,39.1 1061.2,39.6 C1061.2,39.8 1061.3,40 1061.4,40.1 C1061.5,40.2 1061.5,40.3 1061.5,40.4 C1061.6,40.7 1061.5,40.9 1061.4,41.1 C1061.4,41.1 1061.4,41.1 1061.3,41.1 C1060.8,41 1060.4,40.7 1060.3,40.2 C1060.2,40 1060.2,39.8 1060.2,39.6 C1060.2,39.6 1060.2,39.6 1060.2,39.5 L1060.2,39 C1060.2,38.9 1060.2,38.8 1060.2,38.7 C1060.3,38.1 1060.5,37.6 1060.9,37.2 C1061.5,36.6 1062.2,36.2 1063,36 C1063.1,36 1063.2,36 1063.4,36 L1063.9,36 C1063.9,36 1063.9,36 1064,36 C1064.6,36 1065.1,36.2 1065.6,36.5 C1066.4,36.9 1066.8,37.6 1066.9,38.4 C1066.9,38.5 1066.9,38.6 1066.9,38.7 L1066.9,39.4 Z" id="Shape" fill="#8E7146" fill-rule="nonzero"></path>
    </g>
</svg>