<?xml version="1.0" encoding="UTF-8" standalone="no"?>
<svg width="19px" height="19px" viewBox="0 0 19 19" version="1.1" xmlns="http://www.w3.org/2000/svg" xmlns:xlink="http://www.w3.org/1999/xlink">
    <!-- Generator: Sketch 48.2 (47327) - http://www.bohemiancoding.com/sketch -->
    <title>Combined Shape</title>
    <desc>Created with Sketch.</desc>
    <defs></defs>
    <g id="Main" stroke="none" stroke-width="1" fill="none" fill-rule="evenodd" transform="translate(-678.000000, -4958.000000)">
        <g id="07.-banners" transform="translate(40.000000, 4793.000000)" fill="#FFFFFF" fill-rule="nonzero">
            <g id="banner-2" transform="translate(575.000000, 0.000000)">
                <path d="M68.4075728,167.024934 C68.4014175,167.439048 68.7630778,167.863078 69,168.1 C69.4,168 69.8,168.1 70.1,168.4 C70.9,169.1 71.4,170 71.6,170.9 C71.7,171.5 71.6,172 71.1,172.4 C70.9,172.6 70.7,172.8 70.4,172.9 C70.1,173.1 70.1,173.2 70.2,173.6 C70.3,174 70.6,174.5 71,174.9 C71.3,175.3 71.7,175.6 72.1,176 L72.3,176.2 C72.4,176.3 72.5,176.3 72.6,176.4 C72.8,176.5 73,176.5 73.1,176.3 C73.2,176.2 73.3,176.1 73.4,176 L73.5,175.9 C74.2,175.2 75.1,175.1 75.8,175.7 C76.3,176.1 76.8,176.5 77.3,177 C78.2,177.6 78.3,178.2 78,178.7 L77.1,178.2 C77.1,178.1 77.2,178 77,177.8 C76.6,177.4 76.1,177 75.6,176.6 C75.4,176.4 75,176.3 74.6,176.7 L74.5,176.8 C74.4,176.9 74.3,177.1 74.1,177.2 C73.6,177.6 73,177.7 72.4,177.4 C72.2,177.3 72,177.2 71.8,177 L71.6,176.8 C71.2,176.4 70.8,176.1 70.4,175.6 C69.9,175 69.6,174.5 69.4,173.9 C69.2,173.2 69.3,172.6 69.9,172.1 C70.1,171.9 70.3,171.8 70.5,171.6 C70.7,171.5 70.7,171.3 70.7,171.1 C70.5,170.4 70.1,169.7 69.5,169.1 C69.4,169 69.3,169 69.2,169.1 L68.9,169.3 L68.6,169.1 C68.1474144,168.776725 67.5980336,168.272685 67.4554106,167.632434 C65.3677426,169.168465 64,171.64026 64,174.4 C64,179 67.8,182.8 72.4,182.8 C74.5380147,182.8 76.5032088,181.979102 77.9943649,180.638523 C77.2308944,179.54307 76.495596,180 76.4,180 C76.1,180.5 75.3,180.8 74.4,180.8 C73.5,180.8 72.8,180.6 72.1,180.3 C70.9,179.7 69.9,178.9 68.7,177.6 C67.7,176.5 67.1,175.5 66.7,174.4 C66.2,173 66.2,171.7 66.8,170.5 C67,170 67.3,169.6 67.8,169.2 L68.4,170 C68,170.3 67.8,170.6 67.6,170.9 C67.1,171.9 67.1,172.9 67.5,174.1 C67.9,175.1 68.4,176 69.3,177 C70.4,178.2 71.3,179 72.3,179.5 C72.9,179.8 73.4,179.9 74.2,179.9 C74.5,179.9 75.2,179.8 75.8,179.3 C75.9,179.2 76.5,178.9 77.1,179 C77.6877717,179.083967 78.2050383,179.449956 78.6517995,179.979562 C79.9845198,178.490215 80.8,176.530947 80.8,174.4 C80.8,169.8 77,166 72.4,166 C70.9601413,166 69.5986642,166.372313 68.4075728,167.024934 Z M72.4,183.8 C67.2,183.8 63,179.6 63,174.4 C63,169.2 67.2,165 72.4,165 C77.6,165 81.8,169.2 81.8,174.4 C81.8,179.6 77.6,183.8 72.4,183.8 Z" id="Combined-Shape"></path>
            </g>
        </g>
    </g>
</svg>