<?xml version="1.0" encoding="UTF-8" standalone="no"?>
<svg width="19px" height="19px" viewBox="0 0 19 19" version="1.1" xmlns="http://www.w3.org/2000/svg" xmlns:xlink="http://www.w3.org/1999/xlink">
    <!-- Generator: Sketch 48.2 (47327) - http://www.bohemiancoding.com/sketch -->
    <title>Combined Shape</title>
    <desc>Created with Sketch.</desc>
    <defs></defs>
    <g id="Main" stroke="none" stroke-width="1" fill="none" fill-rule="evenodd" transform="translate(-1042.000000, -29.000000)">
        <path d="M1047.40757,31.0249335 C1047.40142,31.4390485 1047.76308,31.8630778 1048,32.1 C1048.4,32 1048.8,32.1 1049.1,32.4 C1049.9,33.1 1050.4,34 1050.6,34.9 C1050.7,35.5 1050.6,36 1050.1,36.4 C1049.9,36.6 1049.7,36.8 1049.4,36.9 C1049.1,37.1 1049.1,37.2 1049.2,37.6 C1049.3,38 1049.6,38.5 1050,38.9 C1050.3,39.3 1050.7,39.6 1051.1,40 L1051.3,40.2 C1051.4,40.3 1051.5,40.3 1051.6,40.4 C1051.8,40.5 1052,40.5 1052.1,40.3 C1052.2,40.2 1052.3,40.1 1052.4,40 L1052.5,39.9 C1053.2,39.2 1054.1,39.1 1054.8,39.7 C1055.3,40.1 1055.8,40.5 1056.3,41 C1057.2,41.6 1057.3,42.2 1057,42.7 L1056.1,42.2 C1056.1,42.1 1056.2,42 1056,41.8 C1055.6,41.4 1055.1,41 1054.6,40.6 C1054.4,40.4 1054,40.3 1053.6,40.7 L1053.5,40.8 C1053.4,40.9 1053.3,41.1 1053.1,41.2 C1052.6,41.6 1052,41.7 1051.4,41.4 C1051.2,41.3 1051,41.2 1050.8,41 L1050.6,40.8 C1050.2,40.4 1049.8,40.1 1049.4,39.6 C1048.9,39 1048.6,38.5 1048.4,37.9 C1048.2,37.2 1048.3,36.6 1048.9,36.1 C1049.1,35.9 1049.3,35.8 1049.5,35.6 C1049.7,35.5 1049.7,35.3 1049.7,35.1 C1049.5,34.4 1049.1,33.7 1048.5,33.1 C1048.4,33 1048.3,33 1048.2,33.1 L1047.9,33.3 L1047.6,33.1 C1047.14741,32.7767246 1046.59803,32.2726846 1046.45541,31.6324336 C1044.36774,33.1684652 1043,35.6402597 1043,38.4 C1043,43 1046.8,46.8 1051.4,46.8 C1053.53801,46.8 1055.50321,45.9791018 1056.99436,44.6385226 C1056.23089,43.5430698 1055.4956,44 1055.4,44 C1055.1,44.5 1054.3,44.8 1053.4,44.8 C1052.5,44.8 1051.8,44.6 1051.1,44.3 C1049.9,43.7 1048.9,42.9 1047.7,41.6 C1046.7,40.5 1046.1,39.5 1045.7,38.4 C1045.2,37 1045.2,35.7 1045.8,34.5 C1046,34 1046.3,33.6 1046.8,33.2 L1047.4,34 C1047,34.3 1046.8,34.6 1046.6,34.9 C1046.1,35.9 1046.1,36.9 1046.5,38.1 C1046.9,39.1 1047.4,40 1048.3,41 C1049.4,42.2 1050.3,43 1051.3,43.5 C1051.9,43.8 1052.4,43.9 1053.2,43.9 C1053.5,43.9 1054.2,43.8 1054.8,43.3 C1054.9,43.2 1055.5,42.9 1056.1,43 C1056.68777,43.0839674 1057.20504,43.4499557 1057.6518,43.9795621 C1058.98452,42.4902148 1059.8,40.5309474 1059.8,38.4 C1059.8,33.8 1056,30 1051.4,30 C1049.96014,30 1048.59866,30.3723126 1047.40757,31.0249335 Z M1051.4,47.8 C1046.2,47.8 1042,43.6 1042,38.4 C1042,33.2 1046.2,29 1051.4,29 C1056.6,29 1060.8,33.2 1060.8,38.4 C1060.8,43.6 1056.6,47.8 1051.4,47.8 Z" id="Combined-Shape" fill="#8E7146" fill-rule="nonzero"></path>
    </g>
</svg>