<?xml version="1.0" encoding="UTF-8" standalone="no"?>
<svg width="13px" height="9px" viewBox="0 0 13 9" version="1.1" xmlns="http://www.w3.org/2000/svg" xmlns:xlink="http://www.w3.org/1999/xlink">
    <!-- Generator: Sketch 48.2 (47327) - http://www.bohemiancoding.com/sketch -->
    <title>Shape</title>
    <desc>Created with Sketch.</desc>
    <defs></defs>
    <g id="0x.-footer" stroke="none" stroke-width="1" fill="none" fill-rule="evenodd" transform="translate(-1109.000000, -36.000000)">
        <path d="M1115.6,36.2 C1116.1,36.2 1116.7,36.2 1117.2,36.2 C1117.7,36.2 1118.2,36.3 1118.7,36.3 C1119.1,36.3 1119.5,36.4 1119.9,36.5 C1120.3,36.6 1120.7,36.8 1120.9,37.1 C1121,37.3 1121.1,37.5 1121.1,37.7 C1121.2,38.2 1121.3,38.7 1121.3,39.2 C1121.3,39.6 1121.4,40 1121.4,40.4 C1121.4,40.6 1121.4,40.8 1121.4,41.1 C1121.4,41.4 1121.4,41.7 1121.3,41.9 C1121.3,42.2 1121.2,42.6 1121.2,42.9 C1121.2,43.1 1121.2,43.2 1121.1,43.4 C1121,43.8 1120.8,44 1120.5,44.2 C1120.3,44.4 1120,44.4 1119.7,44.5 C1119.3,44.6 1119,44.6 1118.6,44.6 C1118.3,44.6 1118,44.7 1117.7,44.7 C1117.2,44.7 1116.6,44.7 1116.1,44.8 C1115.5,44.8 1114.8,44.8 1114.2,44.8 C1113.8,44.8 1113.3,44.8 1112.9,44.7 C1112.5,44.7 1112,44.6 1111.6,44.5 C1111.4,44.5 1111.2,44.4 1110.9,44.3 C1110.5,44.1 1110.2,43.9 1110.1,43.5 C1110,43.4 1110,43.2 1110,43.1 C1109.9,42.5 1109.8,42 1109.8,41.4 C1109.8,40.8 1109.8,40.1 1109.8,39.5 C1109.8,39.1 1109.9,38.6 1109.9,38.2 C1109.9,38 1110,37.8 1110,37.6 C1110.1,37.2 1110.3,36.9 1110.6,36.7 C1110.8,36.6 1111,36.5 1111.3,36.5 C1111.7,36.4 1112,36.4 1112.4,36.4 C1112.8,36.4 1113.1,36.3 1113.5,36.3 C1114.3,36.2 1114.9,36.2 1115.6,36.2 Z M1114.2,42.4 C1115.3,41.8 1116.4,41.1 1117.5,40.5 C1116.4,39.9 1115.3,39.2 1114.2,38.6 L1114.2,42.4 Z" id="Shape" fill="#8E7146" fill-rule="nonzero"></path>
    </g>
</svg>