<?xml version="1.0" encoding="UTF-8" standalone="no"?>
<svg width="62px" height="56px" viewBox="0 0 62 56" version="1.1" xmlns="http://www.w3.org/2000/svg" xmlns:xlink="http://www.w3.org/1999/xlink">
    <!-- Generator: Sketch 48.2 (47327) - http://www.bohemiancoding.com/sketch -->
    <title></title>
    <desc>Created with Sketch.</desc>
    <defs></defs>
    <g id="Main" stroke="none" stroke-width="1" fill="none" fill-rule="evenodd" transform="translate(-188.000000, -725.000000)">
        <path d="M202.572932,763.458028 L190.479212,763.458028 L190.479212,753.057429 L196.405135,753.057429 C196.727636,753.057429 196.969508,752.946571 197.130758,752.724852 C197.292009,752.503133 197.372633,752.271339 197.372633,752.029463 C197.372633,751.747275 197.292009,751.495325 197.130758,751.273606 C196.969508,751.051886 196.727636,750.941028 196.405135,750.941028 L190.479212,750.941028 L190.479212,740.540429 L202.512463,740.540429 C202.834964,740.540429 203.076836,740.419494 203.238087,740.177618 C203.399337,739.935742 203.479961,739.653558 203.479961,739.331058 C203.479961,739.089182 203.409415,738.84731 203.268321,738.605434 C203.127227,738.363559 202.875277,738.242623 202.512463,738.242623 L189.148903,738.242623 C188.866715,738.242623 188.604687,738.323247 188.362812,738.484497 C188.120936,738.645748 188,738.88762 188,739.21012 L188,764.788337 C188,765.110838 188.120936,765.362788 188.362812,765.544194 C188.604687,765.725601 188.866715,765.816303 189.148903,765.816303 L202.572932,765.816303 C202.895433,765.816303 203.127227,765.695367 203.268321,765.453492 C203.409415,765.211616 203.479961,764.949588 203.479961,764.6674 C203.479961,764.385212 203.399337,764.113106 203.238087,763.851074 C203.076836,763.589042 202.85512,763.458028 202.572932,763.458028 Z M220.77398,758.136791 C220.370854,758.136791 220.068514,758.227493 219.866951,758.4089 C219.665388,758.590307 219.544452,758.822101 219.504139,759.104289 C219.383201,759.991166 219.060705,760.97881 218.536642,762.06725 C218.012578,763.15569 216.621814,763.699902 214.364308,763.699902 C212.550241,763.699902 211.169556,763.236314 210.222209,762.309125 C209.274863,761.381935 208.801197,759.930703 208.801197,757.955386 L208.801197,746.284946 C208.801197,744.309629 209.274863,742.858397 210.222209,741.931207 C211.169556,741.004017 212.509929,740.540429 214.243371,740.540429 C216.460564,740.540429 217.881562,741.094719 218.506407,742.203316 C219.131253,743.311912 219.463827,744.269322 219.504139,745.075574 C219.544452,745.357762 219.65531,745.589556 219.836716,745.770963 C220.018123,745.95237 220.330541,746.043072 220.77398,746.043072 C221.217418,746.043072 221.539914,745.942292 221.741477,745.740729 C221.94304,745.539166 222.04382,745.136046 222.04382,744.531357 C222.04382,742.838228 221.368594,741.36684 220.018122,740.117149 C218.66765,738.867459 216.742752,738.242623 214.243371,738.242623 C212.106803,738.242623 210.26253,738.847303 208.710495,740.056681 C207.158459,741.266059 206.382454,743.342126 206.382454,746.284946 L206.382454,757.955386 C206.382454,760.898205 207.148381,762.974273 208.68026,764.183651 C210.212139,765.393029 212.046335,765.997709 214.182903,765.997709 C216.641971,765.997709 218.566869,765.372873 219.957654,764.123182 C221.348438,762.873492 222.04382,761.381948 222.04382,759.648506 C222.04382,759.043817 221.94304,758.640697 221.741477,758.439134 C221.539914,758.237571 221.217418,758.136791 220.77398,758.136791 Z M244.659076,739.572932 C246.110329,739.572932 247.339845,740.076832 248.34766,741.084647 C249.355475,742.092462 249.859375,743.321978 249.859375,744.773231 L249.859375,746.829164 C249.859375,749.24792 249.395787,751.525547 248.468597,753.662115 C247.541407,755.798683 246.291736,757.653035 244.719544,759.225226 C243.147353,760.797417 241.293001,762.047089 239.156433,762.974279 C237.019865,763.901469 234.742238,764.365057 232.323482,764.365057 L226.337091,764.365057 C225.974277,764.365057 225.671937,764.244121 225.430062,764.002245 C225.188186,763.76037 225.06725,763.45803 225.06725,763.095216 L225.06725,757.108825 C225.06725,754.690069 225.52076,752.412441 226.427794,750.275874 C227.334827,748.139306 228.584499,746.274876 230.176847,744.682528 C231.769194,743.090181 233.633624,741.840509 235.770192,740.933475 C237.90676,740.026442 240.164231,739.572932 242.542675,739.572932 L244.659076,739.572932 Z M232.323482,761.825376 C234.379424,761.825376 236.324478,761.432334 238.158701,760.646238 C239.992925,759.860142 241.585249,758.791875 242.935721,757.441402 C244.286193,756.09093 245.354461,754.508685 246.140556,752.694618 C246.926652,750.880551 247.319694,748.925419 247.319694,746.829164 L247.319694,744.773231 C247.319694,744.007292 247.057666,743.3623 246.533602,742.838236 C246.009538,742.314172 245.384702,742.052144 244.659076,742.052144 L242.542675,742.052144 C240.486732,742.052144 238.551756,742.445186 236.737689,743.231282 C234.923622,744.017378 233.331299,745.095724 231.96067,746.466352 C230.590042,747.83698 229.511696,749.429304 228.7256,751.243371 C227.939505,753.057438 227.546463,755.01257 227.546463,757.108825 L227.546463,760.071786 L236.798158,750.820091 C237.080346,750.578215 237.392764,750.457279 237.735421,750.457279 C238.078078,750.457279 238.37034,750.578215 238.612216,750.820091 C238.854092,751.061967 238.975027,751.354229 238.975027,751.696886 C238.975027,752.039543 238.854092,752.331805 238.612216,752.57368 L229.360521,761.825376 L232.323482,761.825376 Z M242.421738,746.950101 C242.703926,747.191976 242.845018,747.484238 242.845018,747.826895 C242.845018,748.169553 242.703926,748.481971 242.421738,748.764159 L241.937989,749.247908 C241.817051,749.368845 241.675959,749.459547 241.514709,749.520016 C241.353458,749.580485 241.19221,749.610719 241.03096,749.610719 C240.869709,749.610719 240.708461,749.580485 240.547211,749.520016 C240.385961,749.459547 240.244869,749.368845 240.123931,749.247908 C239.882055,749.006032 239.761119,748.71377 239.761119,748.371113 C239.761119,748.028456 239.882055,747.736194 240.123931,747.494318 L240.668148,746.950101 C240.910024,746.708225 241.212364,746.587289 241.575177,746.587289 C241.937991,746.587289 242.220175,746.708225 242.421738,746.950101 Z M218.959922,780.086892 C220.894927,780.086892 222.819824,779.885332 224.734673,779.482206 C226.649521,779.07908 228.483717,778.484478 230.237315,777.698383 C231.990913,776.912287 233.653783,775.944799 235.225974,774.79589 C236.798166,773.646981 238.249398,772.326763 239.579713,770.835197 C239.781276,770.593321 239.871978,770.301059 239.851822,769.958402 C239.831666,769.615745 239.700652,769.343639 239.458776,769.142076 C239.216901,768.9002 238.924639,768.789342 238.581982,768.809499 C238.239325,768.829655 237.967219,768.960669 237.765656,769.202545 C236.556278,770.573173 235.23606,771.782533 233.804962,772.83066 C232.373865,773.878788 230.852087,774.765652 229.239583,775.491279 C227.627079,776.216906 225.954132,776.771195 224.22069,777.154165 C222.487248,777.537135 220.733676,777.728617 218.959922,777.728617 C217.145855,777.728617 215.372127,777.537135 213.638685,777.154165 C211.905243,776.771195 210.232296,776.216906 208.619792,775.491279 C207.007288,774.765652 205.48551,773.878788 204.054413,772.83066 C202.623315,771.782533 201.303097,770.573173 200.093719,769.202545 C199.892156,768.960669 199.62005,768.829655 199.277393,768.809499 C198.934736,768.789342 198.642474,768.9002 198.400599,769.142076 C198.158723,769.343639 198.027709,769.615745 198.007553,769.958402 C197.987397,770.301059 198.098255,770.593321 198.34013,770.835197 C199.630133,772.28645 201.061209,773.59659 202.633401,774.765656 C204.205592,775.934721 205.868462,776.912287 207.62206,777.698383 C209.375658,778.484478 211.209854,779.07908 213.124702,779.482206 C215.039551,779.885332 216.984604,780.086892 218.959922,780.086892 Z M238.672685,736.307628 C238.793622,736.307628 238.924636,736.277394 239.06573,736.216925 C239.206824,736.156456 239.337838,736.065754 239.458776,735.944816 C239.700652,735.743253 239.831666,735.471147 239.851822,735.12849 C239.871978,734.785833 239.781276,734.493571 239.579713,734.251695 C238.249398,732.800442 236.798166,731.50038 235.225974,730.351471 C233.653783,729.202562 231.990913,728.224996 230.237315,727.418744 C228.483717,726.612492 226.649521,726.007812 224.734673,725.604686 C222.819824,725.20156 220.894927,725 218.959922,725 C216.984604,725 215.039551,725.20156 213.124702,725.604686 C211.209854,726.007812 209.375658,726.612492 207.62206,727.418744 C205.868462,728.224996 204.205592,729.202562 202.633401,730.351471 C201.061209,731.50038 199.609977,732.800442 198.279662,734.251695 C198.037786,734.493571 197.926928,734.785833 197.947084,735.12849 C197.967241,735.471147 198.118411,735.743253 198.400599,735.944816 C198.642474,736.186692 198.934736,736.29755 199.277393,736.277393 C199.62005,736.257237 199.892156,736.126223 200.093719,735.884348 C201.303097,734.513719 202.623315,733.304359 204.054413,732.256232 C205.48551,731.208104 207.007288,730.32124 208.619792,729.595613 C210.232296,728.869987 211.905243,728.325775 213.638685,727.962961 C215.372127,727.600148 217.145855,727.418744 218.959922,727.418744 C220.733676,727.418744 222.487248,727.600148 224.22069,727.962961 C225.954132,728.325775 227.627079,728.869987 229.239583,729.595613 C230.852087,730.32124 232.373865,731.208104 233.804962,732.256232 C235.23606,733.304359 236.556278,734.513719 237.765656,735.884348 C237.846281,736.005285 237.967217,736.106065 238.128467,736.18669 C238.289718,736.267316 238.471122,736.307628 238.672685,736.307628 Z" id="" fill="#8D7045"></path>
    </g>
</svg>