<?xml version="1.0" encoding="UTF-8" standalone="no"?>
<svg width="54px" height="54px" viewBox="0 0 54 54" version="1.1" xmlns="http://www.w3.org/2000/svg" xmlns:xlink="http://www.w3.org/1999/xlink">
    <!-- Generator: Sketch 48.2 (47327) - http://www.bohemiancoding.com/sketch -->
    <title></title>
    <desc>Created with Sketch.</desc>
    <defs></defs>
    <g id="Main" stroke="none" stroke-width="1" fill="none" fill-rule="evenodd" transform="translate(-574.000000, -730.000000)">
        <g id="Group-9" transform="translate(434.000000, 730.000000)" fill="#8D7045">
            <path d="M193.736328,16.1894531 C193.91211,16.3652353 194,16.5761706 194,16.8222656 C194,17.0683606 193.91211,17.279296 193.736328,17.4550781 L157.455078,53.7363281 C157.384765,53.806641 157.296876,53.8681638 157.191406,53.9208984 C157.085937,53.9736331 156.962891,54 156.822266,54 C156.68164,54 156.567383,53.9736331 156.479492,53.9208984 C156.391601,53.8681638 156.294922,53.806641 156.189453,53.7363281 L140.263672,37.8105469 C140.08789,37.6347647 140,37.4238294 140,37.1777344 C140,36.9316394 140.08789,36.720704 140.263672,36.5449219 L176.544922,0.263671875 C176.720704,0.0878897461 176.931639,0 177.177734,0 C177.423829,0 177.634765,0.0878897461 177.810547,0.263671875 L190.308594,12.7617188 C190.34375,12.7968752 190.387695,12.8320311 190.44043,12.8671875 C190.493164,12.9023439 190.537109,12.9374998 190.572266,12.9726562 C190.607422,13.0078127 190.642578,13.0517575 190.677734,13.1044922 C190.712891,13.1572268 190.748047,13.2011717 190.783203,13.2363281 L193.736328,16.1894531 Z M156.822266,51.8378906 L191.837891,16.8222656 L189.939453,14.8710938 L186.089844,18.7207031 C185.984374,18.791016 185.887696,18.8525388 185.799805,18.9052734 C185.711914,18.9580081 185.597657,18.984375 185.457031,18.984375 C185.316406,18.984375 185.202149,18.9580081 185.114258,18.9052734 C185.026367,18.8525388 184.929688,18.791016 184.824219,18.7207031 C184.648437,18.544921 184.560547,18.3339856 184.560547,18.0878906 C184.560547,17.8417956 184.648437,17.6308603 184.824219,17.4550781 L188.621094,13.6054688 L186.775391,11.7597656 L184.191406,14.2910156 C184.085937,14.3964849 183.989258,14.4667967 183.901367,14.5019531 C183.813476,14.5371096 183.699219,14.5546875 183.558594,14.5546875 C183.417968,14.5546875 183.303711,14.5371096 183.21582,14.5019531 C183.127929,14.4667967 183.031251,14.3964849 182.925781,14.2910156 C182.749999,14.1152335 182.662109,13.9130871 182.662109,13.6845703 C182.662109,13.4560535 182.749999,13.2363292 182.925781,13.0253906 L185.509766,10.4941406 L183.558594,8.54296875 L177.177734,14.9238281 C177.072265,15.0292974 176.975586,15.0996092 176.887695,15.1347656 C176.799804,15.1699221 176.685548,15.1875 176.544922,15.1875 C176.404296,15.1875 176.281251,15.1699221 176.175781,15.1347656 C176.070312,15.0996092 175.982422,15.0292974 175.912109,14.9238281 C175.736327,14.748046 175.648438,14.5458996 175.648438,14.3173828 C175.648438,14.088866 175.736327,13.8691417 175.912109,13.6582031 L182.292969,7.27734375 L177.177734,2.16210938 L142.162109,37.1777344 L144.166016,39.1816406 L154.34375,29.0039062 C154.519532,28.8281241 154.721679,28.7402344 154.950195,28.7402344 C155.178712,28.7402344 155.380858,28.8281241 155.556641,29.0039062 C155.732423,29.1796884 155.820312,29.3906238 155.820312,29.6367188 C155.820312,29.8828137 155.732423,30.0937491 155.556641,30.2695312 L145.431641,40.3945312 L147.277344,42.2929688 L154.34375,35.2792969 C154.519532,35.1035147 154.721679,35.015625 154.950195,35.015625 C155.178712,35.015625 155.380858,35.1035147 155.556641,35.2792969 C155.732423,35.455079 155.820312,35.6660144 155.820312,35.9121094 C155.820312,36.1582044 155.732423,36.3691397 155.556641,36.5449219 L148.542969,43.5585938 L150.441406,45.4570312 L152.972656,42.9257812 C153.148438,42.7499991 153.359374,42.6621094 153.605469,42.6621094 C153.851564,42.6621094 154.062499,42.7499991 154.238281,42.9257812 C154.414063,43.1015634 154.501953,43.3124988 154.501953,43.5585938 C154.501953,43.8046887 154.414063,44.0156241 154.238281,44.1914062 L151.707031,46.7226562 L153.710938,48.6738281 L160.724609,41.6601562 C160.900392,41.4843741 161.102538,41.3964844 161.331055,41.3964844 C161.559571,41.3964844 161.779296,41.4843741 161.990234,41.6601562 C162.166017,41.8359384 162.253906,42.0468738 162.253906,42.2929688 C162.253906,42.5390637 162.166017,42.7499991 161.990234,42.9257812 L154.923828,49.9394531 L156.822266,51.8378906 Z M159.353516,25.9980469 C159.21289,25.9980469 159.098633,25.9804689 159.010742,25.9453125 C158.922851,25.9101561 158.826172,25.8398443 158.720703,25.734375 C158.544921,25.5585929 158.457031,25.3476575 158.457031,25.1015625 C158.457031,24.8554675 158.544921,24.6445321 158.720703,24.46875 L167,16.1894531 C167.175782,16.013671 167.386718,15.9257812 167.632812,15.9257812 C167.878907,15.9257812 168.089843,16.013671 168.265625,16.1894531 C168.441407,16.3652353 168.529297,16.5761706 168.529297,16.8222656 C168.529297,17.0683606 168.441407,17.279296 168.265625,17.4550781 L159.986328,25.734375 C159.951172,25.8398443 159.872071,25.9101561 159.749023,25.9453125 C159.625976,25.9804689 159.494141,25.9980469 159.353516,25.9980469 Z M170.849609,14.5546875 C170.708984,14.5546875 170.594727,14.5371096 170.506836,14.5019531 C170.418945,14.4667967 170.339844,14.3964849 170.269531,14.2910156 C170.093749,14.1152335 170.005859,13.9042981 170.005859,13.6582031 C170.005859,13.4121081 170.093749,13.2011728 170.269531,13.0253906 L176.017578,7.27734375 C176.19336,7.10156162 176.404296,7.01367188 176.650391,7.01367188 C176.896486,7.01367188 177.107421,7.10156162 177.283203,7.27734375 C177.458985,7.45312588 177.546875,7.66406127 177.546875,7.91015625 C177.546875,8.15625123 177.458985,8.36718662 177.283203,8.54296875 L171.482422,14.2910156 C171.412109,14.3964849 171.31543,14.4667967 171.192383,14.5019531 C171.069335,14.5371096 170.955079,14.5546875 170.849609,14.5546875 Z M173.380859,16.1894531 C173.556642,16.013671 173.767577,15.9257812 174.013672,15.9257812 C174.259767,15.9257812 174.470702,16.013671 174.646484,16.1894531 C174.822267,16.3652353 174.910156,16.5761706 174.910156,16.8222656 C174.910156,17.0683606 174.822267,17.279296 174.646484,17.4550781 L169.53125,22.5703125 C169.496094,22.6757818 169.416993,22.7460936 169.293945,22.78125 C169.170898,22.8164064 169.039063,22.8339844 168.898438,22.8339844 C168.757812,22.8339844 168.643555,22.8164064 168.555664,22.78125 C168.467773,22.7460936 168.371094,22.6757818 168.265625,22.5703125 C168.089843,22.3945304 168.001953,22.183595 168.001953,21.9375 C168.001953,21.691405 168.089843,21.4804696 168.265625,21.3046875 L173.380859,16.1894531 Z M175.279297,21.8847656 C175.103515,21.7089835 175.015625,21.4980481 175.015625,21.2519531 C175.015625,21.0058581 175.103515,20.7949228 175.279297,20.6191406 L179.814453,16.1367188 C179.990235,15.9257802 180.192382,15.8203125 180.420898,15.8203125 C180.649415,15.8203125 180.851562,15.9257802 181.027344,16.1367188 C181.203126,16.3125009 181.291016,16.5146473 181.291016,16.7431641 C181.291016,16.9716808 181.203126,17.1738272 181.027344,17.3496094 L176.544922,21.8847656 C176.439453,21.9550785 176.342774,22.0166013 176.254883,22.0693359 C176.166992,22.1220706 176.052735,22.1484375 175.912109,22.1484375 C175.771484,22.1484375 175.657227,22.1220706 175.569336,22.0693359 C175.481445,22.0166013 175.384766,21.9550785 175.279297,21.8847656 Z M164.46875,32.7480469 C164.820314,33.0996111 164.996094,33.5214819 164.996094,34.0136719 C164.996094,34.5058618 164.820314,34.9277326 164.46875,35.2792969 C164.117186,35.6308611 163.704104,35.8066406 163.229492,35.8066406 C162.75488,35.8066406 162.324221,35.6308611 161.9375,35.2792969 C161.585936,34.9277326 161.410156,34.5058618 161.410156,34.0136719 C161.410156,33.5214819 161.585936,33.0996111 161.9375,32.7480469 C162.324221,32.3964826 162.75488,32.2207031 163.229492,32.2207031 C163.704104,32.2207031 164.117186,32.3964826 164.46875,32.7480469 Z M166.367188,25.734375 L160.724609,31.5351562 C160.267576,31.9570334 159.995118,32.7128852 159.907227,33.8027344 C159.819335,34.8925836 160.109372,35.8417928 160.777344,36.6503906 C160.917969,36.8261728 160.988281,37.0283192 160.988281,37.2568359 C160.988281,37.4853527 160.900392,37.6699212 160.724609,37.8105469 L158.193359,40.3417969 C158.052734,40.4824226 157.929688,40.5791013 157.824219,40.6318359 C157.718749,40.6845706 157.595704,40.7109375 157.455078,40.7109375 C157.314452,40.7109375 157.200196,40.6845706 157.112305,40.6318359 C157.024414,40.5791013 156.927735,40.5000005 156.822266,40.3945312 C156.646483,40.2187491 156.558594,40.0166027 156.558594,39.7880859 C156.558594,39.5595692 156.646483,39.3574228 156.822266,39.1816406 L158.826172,37.1777344 C158.1582,36.0175723 157.894531,34.75196 158.035156,33.3808594 C158.175782,32.0097588 158.615231,30.9726598 159.353516,30.2695312 L165.101562,24.46875 C165.277345,24.2929679 165.48828,24.2050781 165.734375,24.2050781 C165.98047,24.2050781 166.191405,24.2929679 166.367188,24.46875 C166.54297,24.6796886 166.630859,24.8994129 166.630859,25.1279297 C166.630859,25.3564465 166.54297,25.5585929 166.367188,25.734375 Z M167.632812,30.796875 C167.984377,31.2539085 168.256835,31.7197242 168.450195,32.1943359 C168.643556,32.6689477 168.757812,33.1523413 168.792969,33.6445312 C168.863282,34.3828162 168.740236,35.0859342 168.423828,35.7539062 C168.10742,36.4218783 167.632816,37.0722625 167,37.7050781 L165.101562,39.6035156 C165.03125,39.7441413 164.94336,39.84082 164.837891,39.8935547 C164.732421,39.9462893 164.609376,39.9726562 164.46875,39.9726562 C164.363281,39.9726562 164.257813,39.9462893 164.152344,39.8935547 C164.046874,39.84082 163.941407,39.7792972 163.835938,39.7089844 C163.660155,39.5332022 163.572266,39.3222669 163.572266,39.0761719 C163.572266,38.8300769 163.660155,38.6191415 163.835938,38.4433594 L165.734375,36.5449219 C166.191409,36.0878883 166.52539,35.6396506 166.736328,35.2001953 C166.947267,34.76074 167.035156,34.3125023 167,33.8554688 C166.964844,33.3632788 166.815431,32.8974631 166.551758,32.4580078 C166.288085,32.0185525 166.015626,31.6757825 165.734375,31.4296875 C165.664062,31.3242182 165.602539,31.2275395 165.549805,31.1396484 C165.49707,31.0517574 165.470703,30.9375007 165.470703,30.796875 C165.470703,30.6562493 165.49707,30.5332037 165.549805,30.4277344 C165.602539,30.3222651 165.664062,30.2343754 165.734375,30.1640625 L172.115234,23.7832031 C172.326173,23.607421 172.545897,23.5195312 172.774414,23.5195312 C173.002931,23.5195312 173.205077,23.607421 173.380859,23.7832031 C173.556642,23.9589853 173.644531,24.1611317 173.644531,24.3896484 C173.644531,24.6181652 173.556642,24.8203116 173.380859,24.9960938 L167.632812,30.796875 Z M177.283203,25.1015625 C177.458985,24.9257804 177.669921,24.8378906 177.916016,24.8378906 C178.162111,24.8378906 178.373046,24.9257804 178.548828,25.1015625 C178.72461,25.2773446 178.8125,25.48828 178.8125,25.734375 C178.8125,25.98047 178.72461,26.1914054 178.548828,26.3671875 L172.115234,32.7480469 C172.044922,32.8535162 171.948243,32.9238279 171.825195,32.9589844 C171.702148,32.9941408 171.587891,33.0117188 171.482422,33.0117188 C171.341796,33.0117188 171.22754,32.9941408 171.139648,32.9589844 C171.051757,32.9238279 170.955079,32.8535162 170.849609,32.7480469 C170.673827,32.5722647 170.585938,32.3613294 170.585938,32.1152344 C170.585938,31.8691394 170.673827,31.658204 170.849609,31.4824219 L177.283203,25.1015625 Z M181.660156,20.7246094 C181.835938,20.5488272 182.046874,20.4609375 182.292969,20.4609375 C182.539064,20.4609375 182.749999,20.5488272 182.925781,20.7246094 C183.101563,20.9003915 183.189453,21.1025379 183.189453,21.3310547 C183.189453,21.5595715 183.101563,21.7617179 182.925781,21.9375 L181.660156,23.203125 C181.589843,23.3085943 181.493165,23.3789061 181.370117,23.4140625 C181.24707,23.4492189 181.132813,23.4667969 181.027344,23.4667969 C180.886718,23.4667969 180.772461,23.4492189 180.68457,23.4140625 C180.596679,23.3789061 180.500001,23.3085943 180.394531,23.203125 C180.218749,23.0273429 180.130859,22.8164075 180.130859,22.5703125 C180.130859,22.3242175 180.218749,22.1132821 180.394531,21.9375 L181.660156,20.7246094 Z" id=""></path>
        </g>
    </g>
</svg>