<?xml version="1.0" encoding="UTF-8" standalone="no"?>
<svg width="57px" height="46px" viewBox="0 0 57 46" version="1.1" xmlns="http://www.w3.org/2000/svg" xmlns:xlink="http://www.w3.org/1999/xlink">
    <!-- Generator: Sketch 48.2 (47327) - http://www.bohemiancoding.com/sketch -->
    <title> copy</title>
    <desc>Created with Sketch.</desc>
    <defs></defs>
    <g id="Main" stroke="none" stroke-width="1" fill="none" fill-rule="evenodd" transform="translate(-949.000000, -739.000000)">
        <g id="Group-8" transform="translate(805.000000, 739.000000)" fill="#8D7045">
            <path d="M201,0 L201,38.5195313 L190.59082,38.5195313 L190.59082,45.4775391 L186.583008,43.2509766 L182.519531,45.4775391 L182.519531,38.5195313 L144,38.5195313 L144,0 L201,0 Z M185.692383,41.8037109 L185.692383,34.734375 L185.302734,34.9013672 C185.228515,34.9384767 185.14502,34.9663085 185.052246,34.9848633 C184.959472,35.0034181 184.857422,35.0126953 184.746094,35.0126953 C184.634765,35.0126953 184.541993,35.0034181 184.467773,34.9848633 C184.393554,34.9663085 184.319336,34.9384767 184.245117,34.9013672 L184.245117,42.6386719 L185.692383,41.8037109 Z M188.920898,42.6386719 L188.920898,34.9013672 C188.80957,34.9384767 188.716797,34.9663085 188.642578,34.9848633 C188.568359,35.0034181 188.475586,35.0126953 188.364258,35.0126953 C188.290039,35.0126953 188.197266,35.0034181 188.085938,34.9848633 C187.974609,34.9663085 187.881836,34.9384767 187.807617,34.9013672 L187.417969,34.6787109 L187.417969,41.8037109 L188.920898,42.6386719 Z M188.25293,33.2314453 L189.199219,31.6171875 L191.036133,31.2275391 L190.924805,30.0029297 C190.887695,29.7802723 190.90625,29.5761728 190.980469,29.390625 C191.054688,29.2050772 191.14746,29.0380867 191.258789,28.8896484 L192.09375,27.9433594 L191.258789,26.9970703 C191.14746,26.8486321 191.054688,26.6816416 190.980469,26.4960938 C190.90625,26.3105459 190.887695,26.1250009 190.924805,25.9394531 L191.036133,24.7148438 L189.811523,24.4365234 C189.625976,24.3994139 189.449708,24.3159186 189.282715,24.1860352 C189.115722,24.0561517 188.976563,23.9169929 188.865234,23.7685547 L188.25293,22.6552734 L187.139648,23.15625 C186.954101,23.2304691 186.759278,23.2675781 186.555176,23.2675781 C186.351073,23.2675781 186.156251,23.2304691 185.970703,23.15625 L184.857422,22.6552734 L184.189453,23.7685547 C184.115234,23.9169929 183.99463,24.0561517 183.827637,24.1860352 C183.660644,24.3159186 183.484376,24.3994139 183.298828,24.4365234 L182.074219,24.7148438 L182.185547,25.9394531 C182.185547,26.1250009 182.157715,26.3105459 182.102051,26.4960938 C182.046386,26.6816416 181.962891,26.8486321 181.851562,26.9970703 L181.016602,27.9433594 L181.851562,28.8896484 C181.962891,29.0380867 182.055664,29.2050772 182.129883,29.390625 C182.204102,29.5761728 182.222656,29.7802723 182.185547,30.0029297 L182.074219,31.2275391 L183.911133,31.6171875 L184.857422,33.2314453 L185.970703,32.7304688 C186.082032,32.6933592 186.184082,32.6655274 186.276855,32.6469727 C186.369629,32.6284179 186.471679,32.6191406 186.583008,32.6191406 C186.657227,32.6191406 186.749999,32.6284179 186.861328,32.6469727 C186.972657,32.6655274 187.065429,32.6933592 187.139648,32.7304688 L188.25293,33.2314453 Z M192.761719,31.2832031 C192.798828,31.6542987 192.715333,31.9882798 192.51123,32.2851563 C192.307128,32.5820327 192.019533,32.7675778 191.648438,32.8417969 L190.59082,33.0644531 L190.59082,34.1220703 L193.986328,34.1220703 C194.134766,33.4912078 194.440916,32.9345727 194.904785,32.4521484 C195.368655,31.9697242 195.934567,31.6542976 196.602539,31.5058594 L196.602539,7.01367188 C195.934567,6.86523363 195.368655,6.5498071 194.904785,6.06738281 C194.440916,5.58495853 194.134766,5.02832347 193.986328,4.39746094 L151.013672,4.39746094 C150.865234,5.02832347 150.559084,5.58495853 150.095215,6.06738281 C149.631345,6.5498071 149.065433,6.86523363 148.397461,7.01367188 L148.397461,31.5058594 C149.065433,31.6542976 149.631345,31.9604469 150.095215,32.4243164 C150.559084,32.8881859 150.865234,33.4540982 151.013672,34.1220703 L182.519531,34.1220703 L182.519531,33.0644531 L181.461914,32.8417969 C181.090818,32.7304682 180.803224,32.5356459 180.599121,32.2573242 C180.395019,31.9790025 180.311523,31.6542987 180.348633,31.2832031 L180.459961,29.9472656 L179.569336,28.8896484 C179.309569,28.6298815 179.179688,28.314455 179.179688,27.9433594 C179.179688,27.5722638 179.309569,27.2568372 179.569336,26.9970703 L180.459961,25.9951172 L180.348633,24.6035156 C180.311523,24.23242 180.395019,23.9077162 180.599121,23.6293945 C180.803224,23.3510728 181.090818,23.1748051 181.461914,23.1005859 L182.797852,22.7666016 L183.46582,21.5976563 C183.614259,21.3749989 183.799804,21.1987311 184.022461,21.0688477 C184.245118,20.9389642 184.486327,20.8740234 184.746094,20.8740234 C184.820313,20.8740234 184.913085,20.8925779 185.024414,20.9296875 C185.135743,20.9667971 185.228515,21.0039061 185.302734,21.0410156 L186.527344,21.5419922 L187.807617,21.0410156 C187.881836,21.0039061 187.965332,20.9667971 188.058105,20.9296875 C188.150879,20.8925779 188.252929,20.8740234 188.364258,20.8740234 C188.624025,20.8740234 188.865233,20.9389642 189.087891,21.0688477 C189.310548,21.1987311 189.477539,21.3749989 189.588867,21.5976563 L190.3125,22.7666016 L191.648438,23.1005859 C191.982424,23.1748051 192.260741,23.3510728 192.483398,23.6293945 C192.706056,23.9077162 192.798828,24.23242 192.761719,24.6035156 L192.650391,25.9951172 L193.541016,26.9970703 C193.763673,27.2568372 193.875,27.5722638 193.875,27.9433594 C193.875,28.314455 193.763673,28.6298815 193.541016,28.8896484 L192.650391,29.9472656 L192.761719,31.2832031 Z M199.330078,36.8496094 L199.330078,1.66992188 L145.669922,1.66992188 L145.669922,36.8496094 L182.519531,36.8496094 L182.519531,35.7919922 L149.455078,35.7919922 L149.455078,34.9570313 C149.455078,34.4374974 149.269533,33.9921894 148.898438,33.6210938 C148.527342,33.2499981 148.082034,33.0644531 147.5625,33.0644531 L146.727539,33.0644531 L146.727539,5.39941406 L147.5625,5.39941406 C148.082034,5.39941406 148.527342,5.22314629 148.898438,4.87060547 C149.269533,4.51806464 149.455078,4.08203385 149.455078,3.5625 L149.455078,2.72753906 L195.544922,2.72753906 L195.544922,3.5625 C195.544922,4.08203385 195.730467,4.51806464 196.101562,4.87060547 C196.472658,5.22314629 196.917966,5.39941406 197.4375,5.39941406 L198.272461,5.39941406 L198.272461,33.0644531 L197.4375,33.0644531 C196.917966,33.0644531 196.472658,33.2499981 196.101562,33.6210938 C195.730467,33.9921894 195.544922,34.4374974 195.544922,34.9570313 L195.544922,35.7919922 L190.59082,35.7919922 L190.59082,36.8496094 L199.330078,36.8496094 Z M186.583008,24.2695312 C187.584966,24.2695312 188.44775,24.631344 189.171387,25.3549805 C189.895023,26.0786169 190.256836,26.9414012 190.256836,27.9433594 C190.256836,28.9824271 189.895023,29.8544887 189.171387,30.5595703 C188.44775,31.264652 187.584966,31.6171875 186.583008,31.6171875 C185.54394,31.6171875 184.671879,31.2553747 183.966797,30.5317383 C183.261715,29.8081019 182.90918,28.9453175 182.90918,27.9433594 C182.90918,26.9414012 183.261715,26.0786169 183.966797,25.3549805 C184.671879,24.631344 185.54394,24.2695312 186.583008,24.2695312 Z M186.583008,29.9472656 C187.102542,29.9472656 187.557127,29.7524434 187.946777,29.362793 C188.336428,28.9731426 188.53125,28.5000028 188.53125,27.9433594 C188.53125,27.386716 188.336428,26.9228534 187.946777,26.5517578 C187.557127,26.1806622 187.102542,25.9951172 186.583008,25.9951172 C186.026364,25.9951172 185.553225,26.1806622 185.163574,26.5517578 C184.773924,26.9228534 184.579102,27.386716 184.579102,27.9433594 C184.579102,28.5000028 184.773924,28.9731426 185.163574,29.362793 C185.553225,29.7524434 186.026364,29.9472656 186.583008,29.9472656 Z M181.628906,8.57226563 L181.628906,10.2978516 L163.371094,10.2978516 L163.371094,8.57226563 L181.628906,8.57226563 Z M191.258789,14.1943359 L191.258789,15.8642578 L153.741211,15.8642578 L153.741211,14.1943359 L191.258789,14.1943359 Z M191.258789,18.4248047 L191.258789,20.0947266 L153.741211,20.0947266 L153.741211,18.4248047 L191.258789,18.4248047 Z M153.741211,24.3251953 L153.741211,22.6552734 L172.5,22.6552734 L172.5,24.3251953 L153.741211,24.3251953 Z M153.741211,30.1142578 L153.741211,28.4443359 L164.540039,28.4443359 L164.540039,30.1142578 L153.741211,30.1142578 Z M177.899414,28.4443359 L177.899414,30.1142578 L167.100586,30.1142578 L167.100586,28.4443359 L177.899414,28.4443359 Z" id="-copy"></path>
        </g>
    </g>
</svg>