<?xml version="1.0" encoding="UTF-8" standalone="no"?>
<svg width="16px" height="17px" viewBox="0 0 16 17" version="1.1" xmlns="http://www.w3.org/2000/svg" xmlns:xlink="http://www.w3.org/1999/xlink">
    <!-- Generator: Sketch 48.2 (47327) - http://www.bohemiancoding.com/sketch -->
    <title>Group 14</title>
    <desc>Created with Sketch.</desc>
    <defs></defs>
    <g id="Catalog_item" stroke="none" stroke-width="1" fill="none" fill-rule="evenodd" transform="translate(-574.000000, -750.000000)">
        <g id="Group-8" transform="translate(511.000000, 632.000000)">
            <g id="Group-15" transform="translate(0.000000, 27.000000)">
                <g id="Group-6" transform="translate(30.000000, 82.000000)">
                    <g id="Group-14" transform="translate(35.000000, 11.000000)">
                        <path d="M12.65,-0.65 L12.65,13.65 L-0.65,13.65 L-0.65,-0.65 L12.65,-0.65 Z" id="Rectangle-21" stroke="#FFFFFF" stroke-width="1.3"></path>
                        <path d="M10,2 L10,4 L2,4 L2,2 L10,2 Z M4,6 L4,8 L2,8 L2,6 L4,6 Z M7,6 L7,8 L5,8 L5,6 L7,6 Z M4,9 L4,11 L2,11 L2,9 L4,9 Z M7,9 L7,11 L5,11 L5,9 L7,9 Z M10,6 L10,11 L8,11 L8,6 L10,6 Z" id="Combined-Shape" fill="#FFFFFF"></path>
                    </g>
                </g>
            </g>
        </g>
    </g>
</svg>