<?xml version="1.0" encoding="UTF-8" standalone="no"?>
<svg width="32px" height="32px" viewBox="0 0 32 32" version="1.1" xmlns="http://www.w3.org/2000/svg" xmlns:xlink="http://www.w3.org/1999/xlink">
    <!-- Generator: Sketch 48.2 (47327) - http://www.bohemiancoding.com/sketch -->
    <title>Fill 92</title>
    <desc>Created with Sketch.</desc>
    <defs></defs>
    <g id="Catalog_item" stroke="none" stroke-width="1" fill="none" fill-rule="evenodd" transform="translate(-1002.000000, -355.000000)">
        <path d="M1022.155,365.656 L1020.649,365.657 C1019.468,365.657 1019.239,366.218 1019.239,367.041 L1019.239,368.857 L1022.056,368.857 L1021.689,371.702 L1019.239,371.702 L1019.239,379 L1016.302,379 L1016.302,371.702 L1013.846,371.702 L1013.846,368.857 L1016.302,368.857 L1016.302,366.76 C1016.302,364.325 1017.789,363 1019.96,363 C1021,363 1021.894,363.077 1022.155,363.112 L1022.155,365.656 Z M1002,387 L1034,387 L1034,355 L1002,355 L1002,387 Z" id="Fill-92" fill="#8D7045"></path>
    </g>
</svg>