<?xml version="1.0" encoding="UTF-8" standalone="no"?>
<svg width="9px" height="9px" viewBox="0 0 9 9" version="1.1" xmlns="http://www.w3.org/2000/svg" xmlns:xlink="http://www.w3.org/1999/xlink">
    <!-- Generator: Sketch 48.2 (47327) - http://www.bohemiancoding.com/sketch -->
    <title>Combined Shape</title>
    <desc>Created with Sketch.</desc>
    <defs></defs>
    <g id="0x.-footer" stroke="none" stroke-width="1" fill="none" fill-rule="evenodd" transform="translate(-1084.000000, -36.000000)">
        <path d="M1084.08269,38.5886469 C1084.08269,37.2148791 1085.19618,36.1013184 1086.57001,36.1013184 L1090.26061,36.1013184 C1091.63426,36.1013184 1092.74792,37.2150568 1092.74792,38.5886469 L1092.74792,42.2333746 C1092.74792,43.6071423 1091.63444,44.7207031 1090.26061,44.7207031 L1086.57001,44.7207031 C1085.19636,44.7207031 1084.08269,43.6069647 1084.08269,42.2333746 L1084.08269,38.5886469 Z M1084.88503,38.5886469 L1084.88503,42.2333746 C1084.88503,43.1638584 1085.63949,43.9183668 1086.57001,43.9183668 L1090.26061,43.9183668 C1091.19131,43.9183668 1091.94559,43.1640357 1091.94559,42.2333746 L1091.94559,38.5886469 C1091.94559,37.658163 1091.19113,36.9036547 1090.26061,36.9036547 L1086.57001,36.9036547 C1085.63931,36.9036547 1084.88503,37.6579858 1084.88503,38.5886469 Z M1088.42677,42.7263242 C1087.16705,42.7263242 1086.14584,41.7051181 1086.14584,40.4453966 C1086.14584,39.185675 1087.16705,38.164469 1088.42677,38.164469 C1089.68649,38.164469 1090.7077,39.185675 1090.7077,40.4453966 C1090.7077,41.7051181 1089.68649,42.7263242 1088.42677,42.7263242 Z M1088.42677,41.9239879 C1089.24337,41.9239879 1089.90536,41.262 1089.90536,40.4453966 C1089.90536,39.6287932 1089.24337,38.9668053 1088.42677,38.9668053 C1087.61017,38.9668053 1086.94818,39.6287932 1086.94818,40.4453966 C1086.94818,41.262 1087.61017,41.9239879 1088.42677,41.9239879 Z M1090.73062,38.6573327 C1090.42677,38.6573327 1090.18045,38.4110117 1090.18045,38.1071592 C1090.18045,37.8033068 1090.42677,37.5569857 1090.73062,37.5569857 C1091.03447,37.5569857 1091.2808,37.8033068 1091.2808,38.1071592 C1091.2808,38.4110117 1091.03447,38.6573327 1090.73062,38.6573327 Z" id="Combined-Shape" fill="#8D7045" fill-rule="nonzero"></path>
    </g>
</svg>