<?xml version="1.0" encoding="UTF-8" standalone="no"?>
<svg width="200px" height="71px" viewBox="0 0 200 71" version="1.1" xmlns="http://www.w3.org/2000/svg" xmlns:xlink="http://www.w3.org/1999/xlink">
    <!-- Generator: Sketch 48.2 (47327) - http://www.bohemiancoding.com/sketch -->
    <title>logo</title>
    <desc>Created with Sketch.</desc>
    <defs></defs>
    <g id="Main" stroke="none" stroke-width="1" fill="none" fill-rule="evenodd" transform="translate(-59.000000, -40.000000)">
        <g id="logo" transform="translate(59.000000, 40.000000)" fill="#8D7045" fill-rule="nonzero">
            <polygon id="Shape" points="86.8 22.8 86.8 29.4 95.9 29.4 95.9 33.7 86.8 33.7 86.8 43.2 82.3 43.2 82.3 18.1 98.9 18.1 98.9 22.8"></polygon>
            <path d="M107.4,18.1 L111.9,18.1 L111.9,22.8 L107.4,22.8 L107.4,18.1 Z M107.4,24.8 L111.9,24.8 L111.9,43.2 L107.4,43.2 L107.4,24.8 Z" id="Shape"></path>
            <polygon id="Shape" points="138.7 18.1 143.2 18.1 143.2 43.2 138.7 43.2 125.8 26 125.8 43.2 121.2 43.2 121.2 18.1 125.8 18.1 138.7 35.2"></polygon>
            <polygon id="Shape" points="157.1 22.8 157.1 28.4 165.9 28.4 165.9 32.8 157.1 32.8 157.1 38.5 168.9 38.5 168.9 43.2 152.5 43.2 152.5 18.1 168.9 18.1 168.9 22.8"></polygon>
            <polygon id="Shape" points="199.3 43.2 193.8 43.2 187.6 34.7 181.6 43.2 176.1 43.2 184.9 30.6 176.1 18.1 181.6 18.1 187.6 26.6 193.7 18.1 199.2 18.1 190.4 30.6"></polygon>
            <polygon id="Shape" points="86 53.2 86 50.7 83.4 50.7 83.4 53.2 82.3 53.2 82.3 47.2 83.4 47.2 83.4 49.7 86 49.7 86 47.2 87.1 47.2 87.1 53.2"></polygon>
            <path d="M90.5,52.1 L90,53.2 L88.8,53.2 L91.3,47.2 L92.4,47.2 L94.8,53.2 L93.6,53.2 L93.1,52.1 L90.5,52.1 Z M91.8,48.7 L90.8,51 L92.7,51 L91.8,48.7 Z" id="Shape"></path>
            <polygon id="Shape" points="100.7 47.2 101.7 47.2 101.7 53.2 100.7 53.2 97.7 49 97.7 53.2 96.6 53.2 96.6 47.2 97.7 47.2 100.7 51.4"></polygon>
            <path d="M107.3,47.6 C107.8,47.9 108.1,48.2 108.4,48.7 C108.7,49.2 108.8,49.7 108.8,50.2 C108.8,50.7 108.7,51.2 108.4,51.7 C108.1,52.2 107.8,52.5 107.3,52.8 C106.8,53.1 106.3,53.2 105.8,53.2 L104,53.2 L104,47.2 L105.9,47.2 C106.4,47.2 106.8,47.3 107.3,47.6 Z M105,52.2 L105.8,52.2 C106.2,52.2 106.5,52.1 106.8,51.9 C107.1,51.7 107.3,51.5 107.5,51.2 C107.7,50.9 107.8,50.6 107.8,50.2 C107.8,49.8 107.7,49.5 107.5,49.2 C107.3,48.9 107.1,48.7 106.8,48.5 C106.5,48.3 106.2,48.2 105.8,48.2 L105,48.2 L105,52.2 Z" id="Shape"></path>
            <path d="M114.7,52.2 C114.9,52.1 115.2,51.9 115.4,51.7 L116.3,52.2 C116,52.6 115.7,52.9 115.2,53.1 C114.8,53.3 114.3,53.4 113.9,53.4 C113.3,53.4 112.8,53.3 112.3,53 C111.8,52.7 111.4,52.3 111.1,51.8 C110.8,51.3 110.7,50.8 110.7,50.2 C110.7,49.6 110.8,49.1 111.1,48.6 C111.4,48.1 111.8,47.7 112.3,47.4 C112.8,47.1 113.3,47 113.9,47 C114.4,47 114.8,47.1 115.2,47.3 C115.6,47.5 116,47.8 116.3,48.2 L115.4,48.7 C115.2,48.5 115,48.3 114.7,48.2 C114.5,48.1 114.2,48.1 113.8,48.1 C113.4,48.1 113,48.2 112.7,48.4 C112.4,48.6 112.1,48.9 111.9,49.2 C111.7,49.5 111.6,49.9 111.6,50.3 C111.6,50.7 111.7,51.1 111.9,51.4 C112.1,51.7 112.4,52 112.7,52.2 C113,52.4 113.4,52.5 113.8,52.5 C114.2,52.4 114.4,52.3 114.7,52.2" id="Shape"></path>
            <path d="M121.3,53.2 L119.8,50.9 L119.2,50.9 L119.2,53.2 L118.2,53.2 L118.2,47.2 L120.3,47.2 C120.6,47.2 121,47.3 121.2,47.5 C121.5,47.7 121.7,47.9 121.9,48.2 C122.1,48.5 122.2,48.8 122.2,49.1 C122.2,49.5 122.1,49.8 121.9,50.1 C121.7,50.4 121.4,50.6 121.1,50.8 L122.7,53.2 L121.3,53.2 Z M119.2,49.9 L120.2,49.9 C120.4,49.9 120.6,49.8 120.8,49.6 C121,49.4 121,49.2 121,49 C121,48.8 120.9,48.6 120.8,48.4 C120.6,48.2 120.4,48.2 120.2,48.2 L119.2,48.2 L119.2,49.9 Z" id="Shape"></path>
            <path d="M125.6,52.1 L125.1,53.2 L124,53.2 L126.5,47.2 L127.5,47.2 L129.9,53.2 L128.8,53.2 L128.3,52.1 L125.6,52.1 Z M127,48.7 L126,51 L127.9,51 L127,48.7 Z" id="Shape"></path>
            <polygon id="Shape" points="132.8 48.2 132.8 49.7 134.8 49.7 134.8 50.7 132.8 50.7 132.8 53.2 131.7 53.2 131.7 47.2 135.6 47.2 135.6 48.2"></polygon>
            <polygon id="Shape" points="140.2 48.2 140.2 53.2 139.1 53.2 139.1 48.2 137.3 48.2 137.3 47.2 142 47.2 142 48.2"></polygon>
            <polygon id="Shape" points="145 48.2 145 49.7 147 49.7 147 50.7 145 50.7 145 52.2 147.8 52.2 147.8 53.2 144 53.2 144 47.2 147.8 47.2 147.8 48.2"></polygon>
            <path d="M153.3,47.6 C153.8,47.9 154.1,48.2 154.4,48.7 C154.7,49.2 154.8,49.7 154.8,50.2 C154.8,50.7 154.7,51.2 154.4,51.7 C154.1,52.2 153.8,52.5 153.3,52.8 C152.8,53.1 152.3,53.2 151.8,53.2 L150,53.2 L150,47.2 L151.9,47.2 C152.4,47.2 152.9,47.3 153.3,47.6 Z M151.1,52.2 L151.9,52.2 C152.3,52.2 152.6,52.1 152.9,51.9 C153.2,51.7 153.4,51.5 153.6,51.2 C153.8,50.9 153.9,50.6 153.9,50.2 C153.9,49.8 153.8,49.5 153.6,49.2 C153.4,48.9 153.2,48.7 152.9,48.5 C152.6,48.3 152.3,48.2 151.9,48.2 L151.1,48.2 L151.1,52.2 Z" id="Shape"></path>
            <polygon id="Shape" points="161.7 48.2 161.7 49.7 163.7 49.7 163.7 50.7 161.7 50.7 161.7 53.2 160.7 53.2 160.7 47.2 164.5 47.2 164.5 48.2"></polygon>
            <polygon id="Shape" points="170.3 52.2 170.3 53.2 166.6 53.2 166.6 47.2 167.6 47.2 167.6 52.2"></polygon>
            <path d="M176.7,47.4 C177.2,47.7 177.6,48.1 177.9,48.6 C178.2,49.1 178.3,49.6 178.3,50.2 C178.3,50.8 178.2,51.3 177.9,51.8 C177.6,52.3 177.2,52.7 176.7,53 C176.2,53.3 175.7,53.4 175.1,53.4 C174.5,53.4 174,53.3 173.5,53 C173,52.7 172.6,52.3 172.3,51.8 C172,51.3 171.9,50.8 171.9,50.2 C171.9,49.6 172,49.1 172.3,48.6 C172.6,48.1 173,47.7 173.5,47.4 C174,47.1 174.5,47 175.1,47 C175.7,47 176.2,47.1 176.7,47.4 M174,48.3 C173.7,48.5 173.4,48.8 173.2,49.1 C173,49.4 172.9,49.8 172.9,50.2 C172.9,50.6 173,51 173.2,51.3 C173.4,51.6 173.7,51.9 174,52.1 C174.3,52.3 174.7,52.4 175.1,52.4 C175.5,52.4 175.9,52.3 176.2,52.1 C176.5,51.9 176.8,51.6 177,51.3 C177.2,51 177.3,50.6 177.3,50.2 C177.3,49.8 177.2,49.4 177,49.1 C176.8,48.8 176.5,48.5 176.2,48.3 C175.9,48.1 175.5,48 175.1,48 C174.7,48 174.3,48.1 174,48.3" id="Shape"></path>
            <path d="M184.9,47.4 C185.4,47.7 185.8,48.1 186.1,48.6 C186.4,49.1 186.5,49.6 186.5,50.2 C186.5,50.8 186.4,51.3 186.1,51.8 C185.8,52.3 185.4,52.7 184.9,53 C184.4,53.3 183.9,53.4 183.3,53.4 C182.7,53.4 182.2,53.3 181.7,53 C181.2,52.7 180.8,52.3 180.5,51.8 C180.2,51.3 180.1,50.8 180.1,50.2 C180.1,49.6 180.2,49.1 180.5,48.6 C180.8,48.1 181.2,47.7 181.7,47.4 C182.2,47.1 182.7,47 183.3,47 C183.9,47 184.4,47.1 184.9,47.4 M182.2,48.3 C181.9,48.5 181.6,48.8 181.4,49.1 C181.2,49.4 181.1,49.8 181.1,50.2 C181.1,50.6 181.2,51 181.4,51.3 C181.6,51.6 181.9,51.9 182.2,52.1 C182.5,52.3 182.9,52.4 183.3,52.4 C183.7,52.4 184.1,52.3 184.4,52.1 C184.7,51.9 185,51.6 185.2,51.3 C185.4,51 185.5,50.6 185.5,50.2 C185.5,49.8 185.4,49.4 185.2,49.1 C185,48.8 184.7,48.5 184.4,48.3 C184.1,48.1 183.7,48 183.3,48 C182.9,48 182.5,48.1 182.2,48.3" id="Shape"></path>
            <path d="M191.7,53.2 L190.2,50.9 L189.6,50.9 L189.6,53.2 L188.5,53.2 L188.5,47.2 L190.6,47.2 C190.9,47.2 191.3,47.3 191.5,47.5 C191.8,47.7 192,47.9 192.2,48.2 C192.4,48.5 192.5,48.8 192.5,49.1 C192.5,49.5 192.4,49.8 192.2,50.1 C192,50.4 191.7,50.6 191.4,50.8 L193,53.2 L191.7,53.2 Z M189.6,49.9 L190.6,49.9 C190.8,49.9 191,49.8 191.2,49.6 C191.4,49.4 191.4,49.2 191.4,49 C191.4,48.8 191.3,48.6 191.2,48.4 C191,48.2 190.8,48.2 190.6,48.2 L189.6,48.2 L189.6,49.9 Z" id="Shape"></path>
            <path d="M195.3,49.9 C195,49.6 194.8,49.2 194.8,48.7 C194.8,48.4 194.9,48.1 195.1,47.8 C195.3,47.5 195.5,47.3 195.8,47.1 C196.1,46.9 196.5,46.9 196.9,46.9 C197.4,46.9 197.8,47 198.2,47.2 C198.5,47.4 198.8,47.7 199,48.1 L198.1,48.7 C197.8,48.2 197.5,48 197,48 C196.7,48 196.4,48.1 196.2,48.2 C196,48.3 195.9,48.5 195.9,48.7 C195.9,48.9 196,49 196.1,49.1 C196.3,49.2 196.4,49.3 196.6,49.4 C196.8,49.5 197,49.5 197.3,49.6 C197.8,49.7 198.1,49.8 198.4,50 C198.7,50.1 198.9,50.3 199.1,50.6 C199.3,50.9 199.3,51.2 199.3,51.6 C199.3,51.9 199.2,52.2 199,52.5 C198.8,52.8 198.5,53 198.2,53.2 C197.9,53.4 197.5,53.5 197,53.5 C196.4,53.5 195.9,53.4 195.5,53.1 C195.1,52.8 194.8,52.5 194.6,52.1 L195.5,51.5 C195.6,51.6 195.6,51.8 195.8,51.9 C195.9,52.1 196.1,52.2 196.3,52.3 C196.5,52.4 196.7,52.5 197,52.5 C197.3,52.5 197.6,52.4 197.9,52.3 C198.1,52.1 198.3,51.9 198.3,51.7 C198.3,51.5 198.2,51.4 198.1,51.3 C198,51.2 197.8,51.1 197.6,51 C197.4,50.9 197.2,50.9 196.9,50.8 L196.7,50.7 C196,50.4 195.6,50.2 195.3,49.9" id="Shape"></path>
            <polygon id="Shape" points="30.2 43.2 26.5 43.2 26.5 28.1 37.5 28.1 37.5 31.9 30.2 31.9 30.2 34.8 35.9 34.8 35.9 38.4 30.2 38.4"></polygon>
            <path d="M31,0.5 L0.6,18.1 L0.6,53.2 L31,70.8 L61.4,53.2 L61.4,18.1 L31,0.5 Z M31,5.9 L56.8,20.8 L56.8,30.3 L31,15.3 L5.2,30.2 L5.2,20.7 L31,5.9 Z M5.2,35.7 L31,20.8 L56.8,35.7 L56.8,35.8 L31,50.6 L5.2,35.8 L5.2,35.7 Z M31,65.4 L5.2,50.5 L5.2,41.2 L31,56 L56.8,41.2 L56.8,50.5 L31,65.4 Z" id="Shape"></path>
        </g>
    </g>
</svg>