<?xml version="1.0" encoding="UTF-8" standalone="no"?>
<svg width="32px" height="32px" viewBox="0 0 32 32" version="1.1" xmlns="http://www.w3.org/2000/svg" xmlns:xlink="http://www.w3.org/1999/xlink">
    <!-- Generator: Sketch 48.2 (47327) - http://www.bohemiancoding.com/sketch -->
    <title>Fill 174</title>
    <desc>Created with Sketch.</desc>
    <defs></defs>
    <g id="Catalog_item" stroke="none" stroke-width="1" fill="none" fill-rule="evenodd" transform="translate(-1128.000000, -355.000000)">
        <path d="M1145.234,374.563 C1144.242,374.563 1143.308,374.027 1142.989,373.417 C1142.989,373.417 1142.455,375.535 1142.343,375.944 C1141.945,377.388 1140.774,378.833 1140.683,378.951 C1140.62,379.034 1140.48,379.008 1140.465,378.899 C1140.44,378.715 1140.141,376.892 1140.493,375.406 C1140.669,374.66 1141.675,370.398 1141.675,370.398 C1141.675,370.398 1141.382,369.811 1141.382,368.944 C1141.382,367.582 1142.171,366.565 1143.154,366.565 C1143.99,366.565 1144.393,367.193 1144.393,367.945 C1144.393,368.785 1143.858,370.042 1143.582,371.206 C1143.351,372.181 1144.071,372.976 1145.033,372.976 C1146.773,372.976 1147.946,370.74 1147.946,368.09 C1147.946,366.076 1146.59,364.568 1144.122,364.568 C1141.335,364.568 1139.597,366.647 1139.597,368.97 C1139.597,369.77 1139.834,370.335 1140.204,370.772 C1140.374,370.973 1140.398,371.054 1140.336,371.284 C1140.291,371.454 1140.191,371.86 1140.148,372.022 C1140.087,372.255 1139.899,372.338 1139.688,372.252 C1138.405,371.728 1137.806,370.321 1137.806,368.741 C1137.806,366.13 1140.008,363 1144.374,363 C1147.884,363 1150.193,365.538 1150.193,368.265 C1150.193,371.87 1148.188,374.563 1145.234,374.563 L1145.234,374.563 Z M1128,387 L1160,387 L1160,355 L1128,355 L1128,387 Z" id="Fill-174" fill="#8D7045"></path>
    </g>
</svg>