<?xml version="1.0" encoding="UTF-8" standalone="no"?>
<svg width="18px" height="23px" viewBox="0 0 18 23" version="1.1" xmlns="http://www.w3.org/2000/svg" xmlns:xlink="http://www.w3.org/1999/xlink">
    <!-- Generator: Sketch 48.2 (47327) - http://www.bohemiancoding.com/sketch -->
    <title>Shape</title>
    <desc>Created with Sketch.</desc>
    <defs></defs>
    <g id="menu" stroke="none" stroke-width="1" fill="none" fill-rule="evenodd" transform="translate(-121.000000, -673.000000)">
        <g id="Group-5" transform="translate(69.000000, 673.000000)" fill="#FFFFFF" fill-rule="nonzero">
            <g id="Group-6" transform="translate(0.632812, 0.000000)">
                <path d="M69.0579873,8.97678126 C69.0579873,9.24080424 69.0579873,9.76885019 68.7939643,10.0328732 C68.5299413,11.881034 67.7378724,13.4651719 66.6817805,14.7852868 C65.3616656,16.1054017 63.7775277,16.8974706 61.9293669,16.8974706 C61.1372979,16.8974706 60.345229,16.6334476 59.5531601,16.1054017 C59.2891371,15.8413787 59.0251141,15.5773557 58.7610911,15.5773557 C58.7610911,15.5773557 58.7610911,15.5773557 58.4970682,15.5773557 C58.4970682,15.8413787 58.2330452,16.3694246 58.2330452,16.6334476 C57.9690222,17.9535625 57.7049992,19.2736774 57.1769533,20.3297693 C56.6489073,21.3858612 56.1208614,22.4419531 55.0647694,22.9699991 C55.0647694,22.9699991 55.0647694,22.9699991 55.0647694,22.9699991 C55.0647694,22.9699991 55.0647694,22.9699991 55.0647694,22.9699991 C55.0647694,22.7059761 55.0647694,22.4419531 55.0647694,22.4419531 C54.8007465,20.8578153 55.0647694,19.2736774 55.3287924,17.6895395 C55.5928154,15.8413787 56.1208614,14.2572408 56.6489073,12.40908 C56.6489073,11.881034 56.9129303,11.617011 56.9129303,11.0889651 C56.9129303,11.0889651 56.9129303,10.8249421 56.9129303,10.8249421 C56.3848843,9.76885019 56.3848843,8.71275828 56.6489073,7.39264339 C56.9129303,6.60057445 57.1769533,6.0725285 57.7049992,5.54448254 C58.4970682,5.01643659 59.8171831,5.01643659 60.345229,5.80850552 C60.609252,6.0725285 60.609252,6.60057445 60.609252,6.86459743 C60.609252,7.39264339 60.345229,7.92068935 60.345229,8.71275828 C60.081206,9.76885019 59.8171831,10.5609191 59.5531601,11.617011 C59.5531601,12.145057 59.2891371,12.40908 59.5531601,12.9371259 C59.5531601,13.7291949 60.081206,14.2572408 60.873275,14.2572408 C62.1933899,14.5212638 63.5135047,14.2572408 64.3055737,13.2011489 C65.0976426,12.145057 65.6256886,11.0889651 65.8897116,10.0328732 C66.1537345,8.71275828 66.1537345,7.39264339 65.8897116,6.33655148 C65.3616656,4.48839063 64.3055737,3.43229872 62.4574128,2.90425276 C60.609252,2.3762068 59.0251141,2.64022978 57.4409763,3.43229872 C56.3848843,3.96034467 55.5928154,4.75241361 54.8007465,5.80850552 C54.0086775,6.86459743 53.7446546,8.18471232 54.0086775,9.50482721 C54.0086775,10.0328732 54.2727005,10.5609191 54.5367235,10.8249421 C54.8007465,11.0889651 54.8007465,11.3529881 54.8007465,11.617011 C55.0647694,12.40908 54.8007465,12.9371259 54.5367235,13.4651719 C54.5367235,13.4651719 54.5367235,13.4651719 54.2727005,13.4651719 C52.9525856,13.2011489 51.8964937,12.40908 51.6324707,11.0889651 C51.3684478,10.5609191 51.3684478,10.0328732 51.3684478,9.50482721 C51.3684478,9.50482721 51.3684478,9.50482721 51.3684478,9.24080424 L51.3684478,7.92068935 C51.3684478,7.65666637 51.3684478,7.39264339 51.3684478,7.12862041 C51.6324707,5.54448254 52.1605167,4.22436765 53.2166086,3.16827574 C54.8007465,1.58413787 56.6489073,0.528045956 58.7610911,0 C59.0251141,0 59.2891371,0 59.8171831,0 L61.1372979,0 C61.1372979,0 61.1372979,0 61.4013209,0 C62.9854588,0 64.3055737,0.528045956 65.6256886,1.32011489 C67.7378724,2.3762068 68.7939643,4.22436765 69.0579873,6.33655148 C69.0579873,6.60057445 69.0579873,6.86459743 69.0579873,7.12862041 L69.0579873,8.97678126 Z" id="Shape"></path>
            </g>
        </g>
    </g>
</svg>