<?xml version="1.0" encoding="UTF-8" standalone="no"?>
<svg width="32px" height="32px" viewBox="0 0 32 32" version="1.1" xmlns="http://www.w3.org/2000/svg" xmlns:xlink="http://www.w3.org/1999/xlink">
    <!-- Generator: Sketch 48.2 (47327) - http://www.bohemiancoding.com/sketch -->
    <title>Fill 93</title>
    <desc>Created with Sketch.</desc>
    <defs></defs>
    <g id="Catalog_item" stroke="none" stroke-width="1" fill="none" fill-rule="evenodd" transform="translate(-1044.000000, -355.000000)">
        <path d="M1066.3626,367.7371 C1066.3686,367.8781 1066.3726,368.0191 1066.3726,368.1621 C1066.3726,372.4991 1063.0706,377.5011 1057.0326,377.5011 C1055.1786,377.5011 1053.4536,376.9581 1052.0006,376.0271 C1052.2576,376.0571 1052.5186,376.0721 1052.7836,376.0721 C1054.3216,376.0721 1055.7366,375.5481 1056.8606,374.6671 C1055.4236,374.6411 1054.2116,373.6921 1053.7936,372.3881 C1053.9946,372.4261 1054.1996,372.4461 1054.4116,372.4461 C1054.7106,372.4461 1055.0006,372.4061 1055.2766,372.3311 C1053.7746,372.0301 1052.6436,370.7031 1052.6436,369.1131 L1052.6436,369.0711 C1053.0856,369.3171 1053.5926,369.4651 1054.1306,369.4821 C1053.2496,368.8931 1052.6696,367.8881 1052.6696,366.7501 C1052.6696,366.1481 1052.8316,365.5841 1053.1146,365.0991 C1054.7336,367.0851 1057.1526,368.3921 1059.8806,368.5291 C1059.8246,368.2891 1059.7956,368.0381 1059.7956,367.7811 C1059.7956,365.9681 1061.2656,364.4981 1063.0776,364.4981 C1064.0226,364.4981 1064.8756,364.8971 1065.4736,365.5351 C1066.2216,365.3881 1066.9246,365.1151 1067.5586,364.7391 C1067.3136,365.5051 1066.7926,366.1481 1066.1156,366.5551 C1066.7796,366.4751 1067.4116,366.2991 1068.0006,366.0381 C1067.5606,366.6961 1067.0036,367.2741 1066.3626,367.7371 L1066.3626,367.7371 Z M1044.0006,387.0001 L1076.0006,387.0001 L1076.0006,355.0001 L1044.0006,355.0001 L1044.0006,387.0001 Z" id="Fill-93" fill="#8D7045"></path>
    </g>
</svg>