<?xml version="1.0" encoding="UTF-8" standalone="no"?>
<svg width="56px" height="56px" viewBox="0 0 56 56" version="1.1" xmlns="http://www.w3.org/2000/svg" xmlns:xlink="http://www.w3.org/1999/xlink">
    <!-- Generator: Sketch 48.2 (47327) - http://www.bohemiancoding.com/sketch -->
    <title></title>
    <desc>Created with Sketch.</desc>
    <defs></defs>
    <g id="Main" stroke="none" stroke-width="1" fill="none" fill-rule="evenodd" transform="translate(-426.000000, -919.000000)">
        <g id="Group-5" transform="translate(364.000000, 919.000000)" fill="#8D7045">
            <path d="M111.601562,34.34375 L118,34.34375 L118,56 L63.8046875,56 L63.8046875,23.4609375 L62,23.4609375 L62,16.2421875 L63.8046875,16.2421875 L63.8046875,7.21875 L77.859375,7.21875 L83.2734375,16.2421875 L85.4609375,16.2421875 L85.4609375,23.4609375 L83.65625,23.4609375 L83.65625,34.34375 L88.25,34.34375 L89.1796875,21.65625 L98.0390625,21.65625 L98.96875,34.34375 L100.882812,34.34375 L101.8125,21.65625 L110.726562,21.65625 L111.601562,34.34375 Z M103.507812,23.4609375 L103.34375,25.265625 L109.140625,25.265625 L109.03125,23.4609375 L103.507812,23.4609375 Z M103.234375,27.0703125 L102.742188,34.34375 L109.796875,34.34375 L109.304688,27.0703125 L103.234375,27.0703125 Z M90.8203125,23.4609375 L90.7109375,25.265625 L96.5078125,25.265625 L96.3984375,23.4609375 L90.8203125,23.4609375 Z M90.6015625,27.0703125 L90.0546875,34.34375 L97.1640625,34.34375 L96.671875,27.0703125 L90.6015625,27.0703125 Z M76.8203125,9.0234375 L73.5390625,9.0234375 L77.859375,16.2421875 L81.1953125,16.2421875 L76.8203125,9.0234375 Z M71.40625,9.0234375 L68.125,9.0234375 L72.4453125,16.2421875 L75.78125,16.2421875 L71.40625,9.0234375 Z M65.609375,9.0234375 L65.609375,16.2421875 L70.3671875,16.2421875 L65.9921875,9.0234375 L65.609375,9.0234375 Z M81.8515625,23.4609375 L65.609375,23.4609375 L65.609375,54.1953125 L81.8515625,54.1953125 L81.8515625,23.4609375 Z M63.8046875,21.65625 L83.65625,21.65625 L83.65625,18.046875 L63.8046875,18.046875 L63.8046875,21.65625 Z M116.195312,54.1953125 L116.195312,36.1484375 L83.65625,36.1484375 L83.65625,54.1953125 L116.195312,54.1953125 Z M90.21875,15.0390625 C89.5989552,14.5286433 89.1067727,13.9088578 88.7421875,13.1796875 C88.3776023,12.4505172 88.1953125,11.6666709 88.1953125,10.828125 C88.1953125,10.0989547 88.3411444,9.39713879 88.6328125,8.72265625 C88.9244806,8.04817371 89.3255183,7.4739607 89.8359375,7 C89.7630205,6.89062445 89.699219,6.78125055 89.6445312,6.671875 C89.5898435,6.56249945 89.544271,6.45312555 89.5078125,6.34375 C89.471354,6.30729148 89.453125,6.27083352 89.453125,6.234375 C89.453125,6.19791648 89.434896,6.1796875 89.3984375,6.1796875 C89.361979,6.07031195 89.3346355,5.96093805 89.3164062,5.8515625 C89.298177,5.74218695 89.2708335,5.63281305 89.234375,5.5234375 C89.234375,5.48697898 89.2252605,5.45052102 89.2070312,5.4140625 C89.188802,5.37760398 89.1796875,5.34114602 89.1796875,5.3046875 C89.1796875,5.19531195 89.170573,5.06770906 89.1523438,4.921875 C89.1341145,4.77604094 89.125,4.64843805 89.125,4.5390625 C89.125,3.26301445 89.5624956,2.18750438 90.4375,1.3125 C91.3125044,0.437495625 92.3697855,0 93.609375,0 C94.8489645,0 95.9153601,0.437495625 96.8085938,1.3125 C97.7018274,2.18750438 98.1484375,3.26301445 98.1484375,4.5390625 C98.1484375,4.97656469 98.0846361,5.39583133 97.9570312,5.796875 C97.8294264,6.19791867 97.6562511,6.58072734 97.4375,6.9453125 C97.9479192,7.45573172 98.3398424,8.04817371 98.6132812,8.72265625 C98.8867201,9.39713879 99.0234375,10.0989547 99.0234375,10.828125 L99.0234375,11.5390625 C98.986979,11.6119795 98.9596355,11.69401 98.9414062,11.7851562 C98.923177,11.8763025 98.9140625,11.958333 98.9140625,12.03125 C98.7682284,12.6510448 98.5312516,13.2161433 98.203125,13.7265625 C97.8749984,14.2369817 97.4739607,14.6744773 97,15.0390625 C97.072917,15.2213551 97.127604,15.4218739 97.1640625,15.640625 C97.200521,15.8593761 97.21875,16.0598949 97.21875,16.2421875 C97.21875,17.2630259 96.8632848,18.1197882 96.1523438,18.8125 C95.4414027,19.5052118 94.5937549,19.8515625 93.609375,19.8515625 C92.6249951,19.8515625 91.7773473,19.5052118 91.0664062,18.8125 C90.3554652,18.1197882 90,17.2630259 90,16.2421875 C90,16.0598949 90.018229,15.8593761 90.0546875,15.640625 C90.091146,15.4218739 90.145833,15.2213551 90.21875,15.0390625 Z M91.09375,8.2578125 C90.7656234,8.58593914 90.5013031,8.9778623 90.3007812,9.43359375 C90.1002594,9.8893252 90,10.3541643 90,10.828125 C90,11.4843783 90.1640609,12.0859348 90.4921875,12.6328125 C90.8203141,13.1796902 91.2578098,13.6171859 91.8046875,13.9453125 L92.6796875,14.4375 L92.1328125,15.2578125 C92.023437,15.4036466 91.9414065,15.5585929 91.8867188,15.7226562 C91.832031,15.8867196 91.8046875,16.0598949 91.8046875,16.2421875 C91.8046875,16.7526067 91.9869773,17.1809879 92.3515625,17.5273438 C92.7161477,17.8736996 93.1354143,18.046875 93.609375,18.046875 C94.1197942,18.046875 94.5481754,17.8736996 94.8945312,17.5273438 C95.2408871,17.1809879 95.4140625,16.7526067 95.4140625,16.2421875 L95.4140625,16.1054688 C95.4140625,16.050781 95.3958335,16.0052085 95.359375,15.96875 C95.1041654,16.041667 94.8307306,16.1054685 94.5390625,16.1601562 C94.2473944,16.214844 93.9375016,16.2421875 93.609375,16.2421875 L93.609375,14.4375 C93.9375016,14.4375 94.2382799,14.401042 94.5117188,14.328125 C94.7851576,14.255208 95.0494779,14.1458341 95.3046875,14 L95.4140625,13.9453125 C95.5963551,13.835937 95.7695304,13.7174486 95.9335938,13.5898438 C96.0976571,13.4622389 96.2343745,13.3255216 96.34375,13.1796875 L96.5625,12.9609375 C96.5625,12.924479 96.580729,12.888021 96.6171875,12.8515625 C96.653646,12.815104 96.671875,12.778646 96.671875,12.7421875 L96.890625,12.3046875 C96.9270835,12.3046875 96.9453125,12.295573 96.9453125,12.2773438 L96.9453125,12.1953125 C96.981771,12.1223955 97.018229,12.0312505 97.0546875,11.921875 C97.091146,11.8124995 97.109375,11.7213545 97.109375,11.6484375 C97.1458335,11.611979 97.1640625,11.5846355 97.1640625,11.5664062 L97.1640625,11.484375 C97.200521,11.3749995 97.21875,11.2656255 97.21875,11.15625 L97.21875,10.828125 C97.21875,10.2447888 97.0820326,9.68880473 96.8085938,9.16015625 C96.5351549,8.63150777 96.1432317,8.18489766 95.6328125,7.8203125 L94.7578125,7.21875 L95.5234375,6.453125 C95.7786471,6.19791539 95.9791659,5.90625164 96.125,5.578125 C96.2708341,5.24999836 96.34375,4.90364766 96.34375,4.5390625 C96.34375,3.77343367 96.0794297,3.12630473 95.5507812,2.59765625 C95.0221328,2.06900777 94.3750038,1.8046875 93.609375,1.8046875 C92.8802047,1.8046875 92.2513047,2.06900777 91.7226562,2.59765625 C91.1940078,3.12630473 90.9296875,3.77343367 90.9296875,4.5390625 L90.9296875,4.78515625 C90.9296875,4.87630254 90.9479165,4.95833297 90.984375,5.03125 C90.984375,5.10416703 90.9934895,5.15885398 91.0117188,5.1953125 C91.029948,5.23177102 91.0390625,5.26822898 91.0390625,5.3046875 C91.0390625,5.34114602 91.048177,5.38671848 91.0664062,5.44140625 C91.0846355,5.49609402 91.09375,5.54166648 91.09375,5.578125 C91.166667,5.72395906 91.257812,5.86979094 91.3671875,6.015625 L91.6953125,6.453125 C91.9505221,6.70833461 92.2421859,6.89973895 92.5703125,7.02734375 C92.8984391,7.15494855 93.2447898,7.21875 93.609375,7.21875 L93.609375,9.0234375 C93.1354143,9.0234375 92.6888042,8.95963605 92.2695312,8.83203125 C91.8502583,8.70442645 91.4583352,8.51302211 91.09375,8.2578125 Z M102.851562,15.0390625 C102.231768,14.5286433 101.739585,13.9088578 101.375,13.1796875 C101.010415,12.4505172 100.828125,11.6666709 100.828125,10.828125 C100.828125,10.0989547 100.973957,9.39713879 101.265625,8.72265625 C101.557293,8.04817371 101.958331,7.4739607 102.46875,7 C102.395833,6.89062445 102.332032,6.78125055 102.277344,6.671875 C102.222656,6.56249945 102.177084,6.45312555 102.140625,6.34375 C102.104166,6.30729148 102.085938,6.27083352 102.085938,6.234375 L102.085938,6.1796875 L101.867188,5.5234375 L101.867188,5.4140625 C101.867188,5.37760398 101.848959,5.34114602 101.8125,5.3046875 C101.8125,5.19531195 101.803386,5.06770906 101.785156,4.921875 C101.766927,4.77604094 101.757812,4.64843805 101.757812,4.5390625 C101.757812,3.26301445 102.195308,2.18750438 103.070312,1.3125 C103.945317,0.437495625 105.002598,0 106.242188,0 C107.518236,0 108.593746,0.437495625 109.46875,1.3125 C110.343754,2.18750438 110.78125,3.26301445 110.78125,4.5390625 C110.78125,4.97656469 110.717449,5.39583133 110.589844,5.796875 C110.462239,6.19791867 110.289064,6.58072734 110.070312,6.9453125 C110.580732,7.45573172 110.981769,8.04817371 111.273438,8.72265625 C111.565106,9.39713879 111.710938,10.0989547 111.710938,10.828125 C111.710938,10.9375005 111.701823,11.0468745 111.683594,11.15625 C111.665364,11.2656255 111.65625,11.3567705 111.65625,11.4296875 L111.65625,11.5390625 C111.619791,11.6119795 111.601562,11.69401 111.601562,11.7851562 C111.601562,11.8763025 111.583334,11.958333 111.546875,12.03125 C111.401041,12.6510448 111.164064,13.2161433 110.835938,13.7265625 C110.507811,14.2369817 110.125002,14.6744773 109.6875,15.0390625 C109.723959,15.2213551 109.760416,15.4218739 109.796875,15.640625 C109.833334,15.8593761 109.851562,16.0598949 109.851562,16.2421875 C109.851562,17.2630259 109.505212,18.1197882 108.8125,18.8125 C108.119788,19.5052118 107.263026,19.8515625 106.242188,19.8515625 C105.257808,19.8515625 104.41016,19.5052118 103.699219,18.8125 C102.988278,18.1197882 102.632812,17.2630259 102.632812,16.2421875 C102.632812,16.0598949 102.651041,15.8593761 102.6875,15.640625 C102.723959,15.4218739 102.778645,15.2213551 102.851562,15.0390625 Z M103.726562,8.2578125 C103.398436,8.58593914 103.134116,8.9778623 102.933594,9.43359375 C102.733072,9.8893252 102.632812,10.3541643 102.632812,10.828125 C102.632812,11.4843783 102.796873,12.0859348 103.125,12.6328125 C103.453127,13.1796902 103.908851,13.6171859 104.492188,13.9453125 L105.3125,14.4375 L104.765625,15.2578125 C104.656249,15.4036466 104.574219,15.5585929 104.519531,15.7226562 C104.464843,15.8867196 104.4375,16.0598949 104.4375,16.2421875 C104.4375,16.7526067 104.61979,17.1809879 104.984375,17.5273438 C105.34896,17.8736996 105.768227,18.046875 106.242188,18.046875 C106.752607,18.046875 107.190102,17.8736996 107.554688,17.5273438 C107.919273,17.1809879 108.101562,16.7526067 108.101562,16.2421875 C108.101562,16.205729 108.092448,16.1601565 108.074219,16.1054688 C108.055989,16.050781 108.046875,16.0052085 108.046875,15.96875 C107.755207,16.041667 107.463543,16.1054685 107.171875,16.1601562 C106.880207,16.214844 106.570314,16.2421875 106.242188,16.2421875 L106.242188,14.4375 C106.570314,14.4375 106.880207,14.401042 107.171875,14.328125 C107.463543,14.255208 107.736978,14.1458341 107.992188,14 L108.046875,13.9453125 C108.229168,13.835937 108.402343,13.7174486 108.566406,13.5898438 C108.73047,13.4622389 108.885416,13.3255216 109.03125,13.1796875 C109.03125,13.143229 109.049479,13.106771 109.085938,13.0703125 L109.195312,12.9609375 C109.195312,12.924479 109.213541,12.888021 109.25,12.8515625 C109.286459,12.815104 109.304688,12.778646 109.304688,12.7421875 C109.377605,12.6692705 109.432291,12.5963545 109.46875,12.5234375 L109.578125,12.3046875 L109.578125,12.1953125 C109.614584,12.1223955 109.651041,12.0312505 109.6875,11.921875 C109.723959,11.8124995 109.760416,11.7213545 109.796875,11.6484375 L109.796875,11.484375 C109.833334,11.3749995 109.860677,11.2656255 109.878906,11.15625 C109.897136,11.0468745 109.90625,10.9375005 109.90625,10.828125 C109.90625,10.2447888 109.760418,9.68880473 109.46875,9.16015625 C109.177082,8.63150777 108.776044,8.18489766 108.265625,7.8203125 L107.390625,7.21875 L108.15625,6.453125 C108.41146,6.19791539 108.611978,5.90625164 108.757812,5.578125 C108.903647,5.24999836 108.976562,4.90364766 108.976562,4.5390625 C108.976562,3.77343367 108.712242,3.12630473 108.183594,2.59765625 C107.654945,2.06900777 107.007816,1.8046875 106.242188,1.8046875 C105.513017,1.8046875 104.884117,2.06900777 104.355469,2.59765625 C103.82682,3.12630473 103.5625,3.77343367 103.5625,4.5390625 C103.5625,4.61197953 103.571614,4.69400996 103.589844,4.78515625 C103.608073,4.87630254 103.617188,4.95833297 103.617188,5.03125 C103.617188,5.10416703 103.626302,5.15885398 103.644531,5.1953125 C103.662761,5.23177102 103.671875,5.26822898 103.671875,5.3046875 C103.708334,5.34114602 103.726562,5.38671848 103.726562,5.44140625 C103.726562,5.49609402 103.744791,5.54166648 103.78125,5.578125 C103.854167,5.72395906 103.936197,5.86979094 104.027344,6.015625 C104.11849,6.16145906 104.236978,6.30729094 104.382812,6.453125 C104.601564,6.70833461 104.874998,6.89973895 105.203125,7.02734375 C105.531252,7.15494855 105.877602,7.21875 106.242188,7.21875 L106.242188,9.0234375 C105.768227,9.0234375 105.321617,8.95963605 104.902344,8.83203125 C104.483071,8.70442645 104.091148,8.51302211 103.726562,8.2578125 Z M89.0703125,50.5859375 L89.0703125,39.7578125 L110.78125,39.7578125 L110.78125,50.5859375 L89.0703125,50.5859375 Z M100.828125,41.5625 L100.828125,44.2421875 L108.976562,44.2421875 L108.976562,41.5625 L100.828125,41.5625 Z M100.828125,46.046875 L100.828125,48.78125 L108.976562,48.78125 L108.976562,46.046875 L100.828125,46.046875 Z M90.9296875,41.5625 L90.9296875,44.2421875 L99.0234375,44.2421875 L99.0234375,41.5625 L90.9296875,41.5625 Z M90.9296875,46.046875 L90.9296875,48.78125 L99.0234375,48.78125 L99.0234375,46.046875 L90.9296875,46.046875 Z M80.046875,25.265625 L80.046875,37.953125 L67.4140625,37.953125 L67.4140625,25.265625 L80.046875,25.265625 Z M78.2421875,36.1484375 L78.2421875,27.0703125 L69.21875,27.0703125 L69.21875,36.1484375 L78.2421875,36.1484375 Z M67.4140625,41.5625 L67.4140625,39.7578125 L69.21875,39.7578125 L69.21875,41.5625 L67.4140625,41.5625 Z M71.0234375,41.5625 L71.0234375,39.7578125 L76.4375,39.7578125 L76.4375,41.5625 L71.0234375,41.5625 Z M78.2421875,41.5625 L78.2421875,39.7578125 L80.046875,39.7578125 L80.046875,41.5625 L78.2421875,41.5625 Z" id=""></path>
        </g>
    </g>
</svg>