<?xml version="1.0" encoding="UTF-8" standalone="no"?>
<svg width="56px" height="56px" viewBox="0 0 56 56" version="1.1" xmlns="http://www.w3.org/2000/svg" xmlns:xlink="http://www.w3.org/1999/xlink">
    <!-- Generator: Sketch 48.2 (47327) - http://www.bohemiancoding.com/sketch -->
    <title></title>
    <desc>Created with Sketch.</desc>
    <defs></defs>
    <g id="Main" stroke="none" stroke-width="1" fill="none" fill-rule="evenodd" transform="translate(-999.000000, -919.000000)">
        <g id="Group-7" transform="translate(899.000000, 919.000000)" fill="#8D7045">
            <path d="M150.367188,20.78125 L156,20.78125 L156,35.21875 L150.367188,35.21875 C150.148436,35.8385448 149.920574,36.4309868 149.683594,36.9960938 C149.446613,37.5612007 149.182293,38.1354138 148.890625,38.71875 L152.882812,42.7109375 L142.710938,52.8828125 L138.71875,48.890625 C138.135414,49.1822931 137.561201,49.4466134 136.996094,49.6835938 C136.430987,49.9205741 135.838545,50.1484364 135.21875,50.3671875 L135.21875,56 L120.78125,56 L120.78125,50.3671875 C120.161455,50.1484364 119.569013,49.9205741 119.003906,49.6835938 C118.438799,49.4466134 117.864586,49.1822931 117.28125,48.890625 L113.289062,52.8828125 L103.117188,42.7109375 L107.109375,38.71875 C106.817707,38.1354138 106.553387,37.5612007 106.316406,36.9960938 C106.079426,36.4309868 105.851564,35.8385448 105.632812,35.21875 L100,35.21875 L100,20.78125 L105.632812,20.78125 C105.851564,20.1614552 106.079426,19.5690132 106.316406,19.0039062 C106.553387,18.4387993 106.817707,17.8645862 107.109375,17.28125 L103.117188,13.2890625 L113.289062,3.1171875 L117.28125,7.109375 C117.864586,6.81770688 118.438799,6.5533866 119.003906,6.31640625 C119.569013,6.0794259 120.161455,5.85156359 120.78125,5.6328125 L120.78125,0 L135.21875,0 L135.21875,5.6328125 C135.838545,5.85156359 136.430987,6.0794259 136.996094,6.31640625 C137.561201,6.5533866 138.135414,6.81770688 138.71875,7.109375 L142.710938,3.1171875 L152.882812,13.2890625 L148.890625,17.28125 C149.182293,17.8645862 149.446613,18.4387993 149.683594,19.0039062 C149.920574,19.5690132 150.148436,20.1614552 150.367188,20.78125 Z M102,22.5627706 L102,27 L111.245675,27 C111.208766,26.8556991 111.181084,26.7114004 111.16263,26.5670996 C111.144175,26.4227987 111.134948,26.2785 111.134948,26.1341991 C111.134948,24.6551153 111.670122,23.3925016 112.740484,22.3463203 C113.810847,21.3001391 115.102645,20.7770563 116.615917,20.7770563 C118.129189,20.7770563 119.420987,21.3001391 120.491349,22.3463203 C121.561712,23.3925016 122.096886,24.6551153 122.096886,26.1341991 L122.096886,26.5670996 C122.096886,26.7114004 122.078432,26.8556991 122.041522,27 L127.577855,27 L127.577855,19.0454545 L128.906574,19.5865801 C129.128029,19.6948057 129.358707,19.7669551 129.598616,19.8030303 C129.838525,19.8391055 130.087657,19.8571429 130.346021,19.8571429 C131.342566,19.8571429 132.200688,19.5144334 132.920415,18.8290043 C133.640142,18.1435752 134,17.2958203 134,16.2857143 C134,15.3116834 133.640142,14.4729472 132.920415,13.7694805 C132.200688,13.0660138 131.342566,12.7142857 130.346021,12.7142857 C130.087657,12.7142857 129.838525,12.7413417 129.598616,12.7954545 C129.358707,12.8495674 129.128029,12.9307354 128.906574,13.038961 L127.577855,13.5800866 L127.577855,2 L123.038062,2 L123.038062,7.14069264 L122.373702,7.3030303 C121.598612,7.5194816 120.841988,7.781023 120.103806,8.08766234 C119.365625,8.39430168 118.645909,8.72799242 117.944637,9.08874459 L117.391003,9.41341991 L113.626298,5.78787879 L105.875433,13.3636364 L109.640138,16.9891775 L109.307958,17.5844156 C108.901959,18.2698447 108.551328,18.9733009 108.256055,19.6948052 C107.960783,20.4163095 107.702423,21.1558404 107.480969,21.9134199 L107.259516,22.5627706 L102,22.5627706 Z M127,55 L127,45.7543253 C126.855699,45.7912343 126.7114,45.8189157 126.5671,45.8373702 C126.422799,45.8558248 126.2785,45.8650519 126.134199,45.8650519 C124.655115,45.8650519 123.392502,45.3298785 122.34632,44.2595156 C121.300139,43.1891527 120.777056,41.8973547 120.777056,40.384083 C120.777056,38.8708113 121.300139,37.5790134 122.34632,36.5086505 C123.392502,35.4382876 124.655115,34.9031142 126.134199,34.9031142 L126.5671,34.9031142 C126.7114,34.9031142 126.855699,34.9215684 127,34.9584775 L127,29.4221453 L119.045455,29.4221453 L119.58658,28.0934256 C119.694806,27.8719712 119.766955,27.641293 119.80303,27.4013841 C119.839106,27.1614752 119.857143,26.9123427 119.857143,26.6539792 C119.857143,25.6574345 119.514433,24.7993116 118.829004,24.0795848 C118.143575,23.359858 117.29582,23 116.285714,23 C115.311683,23 114.472947,23.359858 113.769481,24.0795848 C113.066014,24.7993116 112.714286,25.6574345 112.714286,26.6539792 C112.714286,26.9123427 112.741342,27.1614752 112.795455,27.4013841 C112.849567,27.641293 112.930735,27.8719712 113.038961,28.0934256 L113.580087,29.4221453 L102,29.4221453 L102,33.9619377 L107.140693,33.9619377 L107.30303,34.6262976 C107.519482,35.401388 107.781023,36.1580125 108.087662,36.8961938 C108.394302,37.6343751 108.727992,38.3540911 109.088745,39.0553633 L109.41342,39.6089965 L105.787879,43.3737024 L113.363636,51.1245675 L116.989177,47.3598616 L117.584416,47.6920415 C118.269845,48.0980412 118.973301,48.4486721 119.694805,48.7439446 C120.41631,49.0392172 121.15584,49.2975767 121.91342,49.5190311 L122.562771,49.7404844 L122.562771,55 L127,55 Z M155,33.4372294 L155,29 L145.754325,29 C145.791234,29.1443009 145.818916,29.2885996 145.83737,29.4329004 C145.855825,29.5772013 145.865052,29.7215 145.865052,29.8658009 C145.865052,31.3448847 145.329878,32.6074984 144.259516,33.6536797 C143.189153,34.6998609 141.897355,35.2229437 140.384083,35.2229437 C138.870811,35.2229437 137.579013,34.6998609 136.508651,33.6536797 C135.438288,32.6074984 134.903114,31.3448847 134.903114,29.8658009 L134.903114,29.4329004 C134.903114,29.2885996 134.921568,29.1443009 134.958478,29 L129.422145,29 L129.422145,36.9545455 L128.093426,36.4134199 C127.871971,36.3051943 127.641293,36.2330449 127.401384,36.1969697 C127.161475,36.1608945 126.912343,36.1428571 126.653979,36.1428571 C125.657434,36.1428571 124.799312,36.4855666 124.079585,37.1709957 C123.359858,37.8564248 123,38.7041797 123,39.7142857 C123,40.6883166 123.359858,41.5270528 124.079585,42.2305195 C124.799312,42.9339862 125.657434,43.2857143 126.653979,43.2857143 C126.912343,43.2857143 127.161475,43.2586583 127.401384,43.2045455 C127.641293,43.1504326 127.871971,43.0692646 128.093426,42.961039 L129.422145,42.4199134 L129.422145,54 L133.961938,54 L133.961938,48.8593074 L134.626298,48.6969697 C135.401388,48.4805184 136.158012,48.218977 136.896194,47.9123377 C137.634375,47.6056983 138.354091,47.2720076 139.055363,46.9112554 L139.608997,46.5865801 L143.373702,50.2121212 L151.124567,42.6363636 L147.359862,39.0108225 L147.692042,38.4155844 C148.098041,37.7301553 148.448672,37.0266991 148.743945,36.3051948 C149.039217,35.5836905 149.297577,34.8441596 149.519031,34.0865801 L149.740484,33.4372294 L155,33.4372294 Z M154,27.5778547 L154,23.0380623 L148.859307,23.0380623 L148.69697,22.3737024 C148.480518,21.598612 148.218977,20.8419875 147.912338,20.1038062 C147.605698,19.3656249 147.272008,18.6459089 146.911255,17.9446367 L146.58658,17.3910035 L150.212121,13.6262976 L142.636364,5.87543253 L139.010823,9.64013841 L138.415584,9.30795848 C137.730155,8.90195875 137.026699,8.55132789 136.305195,8.25605536 C135.58369,7.96078284 134.84416,7.70242325 134.08658,7.48096886 L133.437229,7.25951557 L133.437229,2 L129,2 L129,11.2456747 C129.144301,11.2087657 129.2886,11.1810843 129.4329,11.1626298 C129.577201,11.1441752 129.7215,11.1349481 129.865801,11.1349481 C131.344885,11.1349481 132.607498,11.6701215 133.65368,12.7404844 C134.699861,13.8108473 135.222944,15.1026453 135.222944,16.615917 C135.222944,18.1291887 134.699861,19.4209866 133.65368,20.4913495 C132.607498,21.5617124 131.344885,22.0968858 129.865801,22.0968858 L129.4329,22.0968858 C129.2886,22.0968858 129.144301,22.0784316 129,22.0415225 L129,27.5778547 L136.954545,27.5778547 L136.41342,28.9065744 C136.305194,29.1280288 136.233045,29.358707 136.19697,29.5986159 C136.160894,29.8385248 136.142857,30.0876573 136.142857,30.3460208 C136.142857,31.3425655 136.485567,32.2006884 137.170996,32.9204152 C137.856425,33.640142 138.70418,34 139.714286,34 C140.688317,34 141.527053,33.640142 142.230519,32.9204152 C142.933986,32.2006884 143.285714,31.3425655 143.285714,30.3460208 C143.285714,30.0876573 143.258658,29.8385248 143.204545,29.5986159 C143.150433,29.358707 143.069265,29.1280288 142.961039,28.9065744 L142.419913,27.5778547 L154,27.5778547 Z" id=""></path>
        </g>
    </g>
</svg>