<?xml version="1.0" encoding="UTF-8" standalone="no"?>
<svg width="10px" height="10px" viewBox="0 0 10 10" version="1.1" xmlns="http://www.w3.org/2000/svg" xmlns:xlink="http://www.w3.org/1999/xlink">
    <!-- Generator: Sketch 49.3 (51167) - http://www.bohemiancoding.com/sketch -->
    <title>Combined Shape</title>
    <desc>Created with Sketch.</desc>
    <defs></defs>
    <g id="Desktop" stroke="none" stroke-width="1" fill="none" fill-rule="evenodd">
        <g id="Catalog_category" transform="translate(-964.000000, -35.000000)" fill="#FFFFFF" fill-rule="nonzero">
            <g id="00.-header" transform="translate(59.000000, 29.000000)">
                <path d="M911.960499,12.3551188 L914.29187,14.68649 L913.58477,15.39359 L911.239831,13.0486508 C910.593813,13.5232812 909.787601,13.8 908.9,13.8 C906.8,13.8 905,12.1 905,9.9 C905,7.8 906.7,6 908.9,6 C911.1,6 912.8,7.7 912.8,9.9 C912.8,10.8412118 912.488844,11.690907 911.960499,12.3551188 Z M908.9,7 C907.3,7 906,8.3 906,9.9 C906,11.5 907.3,12.8 908.9,12.8 C910.5,12.8 911.8,11.5 911.8,9.9 C911.8,8.3 910.5,7 908.9,7 Z" id="Combined-Shape"></path>
            </g>
        </g>
    </g>
</svg>