<?xml version="1.0" encoding="UTF-8" standalone="no"?>
<svg width="32px" height="32px" viewBox="0 0 32 32" version="1.1" xmlns="http://www.w3.org/2000/svg" xmlns:xlink="http://www.w3.org/1999/xlink">
    <!-- Generator: Sketch 48.2 (47327) - http://www.bohemiancoding.com/sketch -->
    <title>Combined Shape</title>
    <desc>Created with Sketch.</desc>
    <defs></defs>
    <g id="Catalog_item" stroke="none" stroke-width="1" fill="none" fill-rule="evenodd" transform="translate(-1086.000000, -355.000000)">
        <path d="M1086,387 L1086,355 L1118,355 L1118,387 L1086,387 Z M1102.033,378.862 C1106.404,378.862 1109.962,375.305 1109.964,370.934 C1109.965,368.815 1109.14,366.823 1107.643,365.325 C1106.146,363.826 1104.154,363 1102.033,363 C1097.661,363 1094.104,366.556 1094.102,370.927 C1094.101,372.325 1094.467,373.689 1095.161,374.891 L1094.035,379 L1098.24,377.897 C1099.398,378.529 1100.702,378.862 1102.03,378.862 L1102.033,378.862 Z M1102.0359,364.339 C1103.7959,364.339 1105.4509,365.026 1106.6959,366.271 C1107.9409,367.517 1108.6249,369.172 1108.6249,370.933 C1108.6229,374.567 1105.6659,377.523 1102.0329,377.523 L1102.0299,377.523 C1100.8469,377.523 1099.6869,377.205 1098.6749,376.604 L1098.4349,376.462 L1095.9399,377.116 L1096.6059,374.684 L1096.4489,374.435 C1095.7889,373.386 1095.4409,372.173 1095.4409,370.928 C1095.4419,367.295 1098.3999,364.339 1102.0359,364.339 Z M1105.9129,373.761 C1106.0779,373.298 1106.0779,372.902 1106.0289,372.819 C1105.9789,372.736 1105.8469,372.687 1105.6489,372.588 C1105.4509,372.488 1104.4759,372.009 1104.2949,371.943 C1104.1129,371.877 1103.9809,371.844 1103.8489,372.042 C1103.7169,372.241 1103.3369,372.687 1103.2209,372.819 C1103.1059,372.951 1102.9899,372.968 1102.7919,372.869 C1102.5939,372.769 1101.9549,372.56 1101.1979,371.885 C1100.6089,371.36 1100.2119,370.711 1100.0959,370.513 C1099.9799,370.315 1100.0839,370.207 1100.1829,370.109 C1100.2719,370.02 1100.3809,369.877 1100.4799,369.762 C1100.5789,369.646 1100.6119,369.563 1100.6779,369.431 C1100.7439,369.299 1100.7109,369.183 1100.6619,369.084 C1100.6119,368.985 1100.2159,368.01 1100.0509,367.613 C1099.8899,367.227 1099.7269,367.279 1099.6049,367.273 C1099.4889,367.267 1099.3569,367.266 1099.2249,367.266 C1099.0929,367.266 1098.8779,367.316 1098.6969,367.514 C1098.5149,367.712 1098.0029,368.192 1098.0029,369.167 C1098.0029,370.142 1098.7129,371.084 1098.8119,371.216 C1098.9109,371.348 1100.2099,373.349 1102.1979,374.207 C1102.6699,374.411 1103.0389,374.533 1103.3269,374.625 C1103.8019,374.775 1104.2339,374.754 1104.5749,374.703 C1104.9559,374.646 1105.7479,374.224 1105.9129,373.761 Z" id="Combined-Shape" fill="#8D7045"></path>
    </g>
</svg>