<?xml version="1.0" encoding="UTF-8" standalone="no"?>
<svg width="32px" height="24px" viewBox="0 0 32 24" version="1.1" xmlns="http://www.w3.org/2000/svg" xmlns:xlink="http://www.w3.org/1999/xlink">
    <!-- Generator: Sketch 48.2 (47327) - http://www.bohemiancoding.com/sketch -->
    <title>Shape</title>
    <desc>Created with Sketch.</desc>
    <defs></defs>
    <g id="menu" stroke="none" stroke-width="1" fill="none" fill-rule="evenodd" transform="translate(-231.000000, -673.000000)">
        <g id="Group-6" transform="translate(69.632812, 673.000000)" fill="#FFFFFF" fill-rule="nonzero">
            <path d="M177.637178,0.528045956 C178.957293,0.528045956 180.54143,0.528045956 181.861545,0.528045956 C183.18166,0.528045956 184.501775,0.792068935 185.82189,0.792068935 C186.877982,0.792068935 187.934074,1.05609191 188.990166,1.32011489 C190.046258,1.58413787 191.10235,2.11218383 191.630396,2.90425276 C191.894418,3.43229872 192.158441,3.96034467 192.158441,4.48839063 C192.422464,5.80850552 192.686487,7.12862041 192.686487,8.4487353 C192.686487,9.50482721 192.95051,10.5609191 192.95051,11.617011 C192.95051,12.145057 192.95051,12.673103 192.95051,13.4651719 C192.95051,14.2572408 192.95051,15.0493098 192.686487,15.5773557 C192.686487,16.3694246 192.422464,17.4255166 192.422464,18.2175855 C192.422464,18.7456315 192.422464,19.0096544 192.158441,19.5377004 C191.894418,20.5937923 191.366373,21.1218383 190.574304,21.6498842 C190.046258,22.1779302 189.254189,22.1779302 188.46212,22.4419531 C187.406028,22.7059761 186.613959,22.7059761 185.557867,22.7059761 C184.765798,22.7059761 183.973729,22.9699991 183.18166,22.9699991 C181.861545,22.9699991 180.277407,22.9699991 178.957293,23.2340221 C177.373155,23.2340221 175.524994,23.2340221 173.940856,23.2340221 C172.884764,23.2340221 171.564649,23.2340221 170.508557,22.9699991 C169.452465,22.9699991 168.13235,22.7059761 167.076259,22.4419531 C166.548213,22.4419531 166.020167,22.1779302 165.228098,21.9139072 C164.172006,21.3858612 163.379937,20.8578153 163.115914,19.8017234 C162.851891,19.5377004 162.851891,19.0096544 162.851891,18.7456315 C162.587868,17.1614936 162.323845,15.8413787 162.323845,14.2572408 C162.323845,12.673103 162.323845,10.8249421 162.323845,9.24080424 C162.323845,8.18471232 162.587868,6.86459743 162.587868,5.80850552 C162.587868,5.28045956 162.851891,4.75241361 162.851891,4.22436765 C163.115914,3.16827574 163.64396,2.3762068 164.436029,1.84816085 C164.964075,1.58413787 165.492121,1.32011489 166.28419,1.32011489 C167.340282,1.05609191 168.13235,1.05609191 169.188442,1.05609191 C170.244534,1.05609191 171.036603,0.792068935 172.092695,0.792068935 C174.204879,0.528045956 175.789017,0.528045956 177.637178,0.528045956 Z M173.940856,16.8974706 C176.845109,15.3133327 179.749361,13.4651719 182.653614,11.881034 C179.749361,10.2968961 176.845109,8.4487353 173.940856,6.86459743 L173.940856,16.8974706 Z" id="Shape"></path>
        </g>
    </g>
</svg>